<svg width="264" height="264" viewBox="0 0 264 264" fill="none" xmlns="http://www.w3.org/2000/svg">
<path d="M171.953 21.166C152.52 21.5008 137.532 37.3936 120.898 47.4456C95.7727 62.6288 63.5082 65.7102 42.29 85.9991C27.7626 99.8903 20.5781 120.823 22.6215 140.819C24.6649 160.815 35.6309 179.56 51.5126 191.879C61.6391 199.735 73.5254 205.03 85.6541 209.171C97.946 213.368 110.743 216.473 123.731 216.637C141.732 216.864 159.416 211.421 175.699 203.742C187.023 198.402 197.939 191.876 206.845 183.077C215.26 174.763 221.712 164.554 226.131 153.582C237.055 126.461 235.316 95.3812 225.847 67.7182C218.016 44.8357 198.863 20.7019 171.953 21.166Z" fill="#92E3A9"/>
<path opacity="0.7" d="M171.953 21.166C152.52 21.5008 137.532 37.3936 120.898 47.4456C95.7727 62.6288 63.5082 65.7102 42.29 85.9991C27.7626 99.8903 20.5781 120.823 22.6215 140.819C24.6649 160.815 35.6309 179.56 51.5126 191.879C61.6391 199.735 73.5254 205.03 85.6541 209.171C97.946 213.368 110.743 216.473 123.731 216.637C141.732 216.864 159.416 211.421 175.699 203.742C187.023 198.402 197.939 191.876 206.845 183.077C215.26 174.763 221.712 164.554 226.131 153.582C237.055 126.461 235.316 95.3812 225.847 67.7182C218.016 44.8357 198.863 20.7019 171.953 21.166Z" fill="white"/>
<path opacity="0.1" d="M184.005 133.084C183.866 129.107 183.608 124.865 183.18 120.476C182.605 111.716 181.505 103.529 179.513 98.3844C179.513 98.3839 179.513 98.3833 179.512 98.3828C179.512 98.3823 179.512 98.3812 179.512 98.3807L179.503 98.3812C168.555 96.1388 111.609 100.294 111.568 100.297L111.21 98.7144C111.164 98.5043 111.116 98.2941 111.068 98.0845L110.818 96.9815L110.746 96.7302C110.377 95.2423 109.962 93.7655 109.473 92.3045C109.472 92.3045 109.472 92.3045 109.472 92.3045L109.472 92.3034C109.472 92.3034 66.3027 88.449 51.9833 92.1873V92.1894C51.9828 92.1894 51.9828 92.1894 51.9823 92.1894C51.9849 92.315 51.9854 92.4365 51.9875 92.5616L52.0298 96.0971C52.0715 102.935 51.9131 109.346 52.2674 116.394L52.2679 116.443C52.2658 116.443 52.2642 116.444 52.2621 116.444C52.2452 116.444 52.1697 116.446 52.0525 116.467C50.8919 116.617 49.9584 117.416 49.5915 118.467C49.4531 118.865 49.3929 119.297 49.4352 119.744L49.6411 121.941C49.6443 121.977 49.6459 122.01 49.649 122.046C50.177 127.654 50.6945 133.208 50.6945 133.208L50.7008 133.209C50.7188 133.218 50.9711 133.235 51.4215 133.259L53.7922 133.424C48.7461 133.892 43.2465 140.554 43.4757 146.282C43.7053 152.014 38.1967 162.801 39.5737 168.998C40.6487 173.836 46.0602 181.611 48.7097 187.52C48.6464 187.883 48.5767 188.273 48.5006 188.692L36.6787 212.425C37.4691 211.263 44.5845 242.255 77.7043 235.693L101.258 197.319C103.554 195.554 106.222 193.232 108.43 190.576C109.438 189.507 110.226 188.468 110.651 187.504C110.652 187.503 110.652 187.502 110.652 187.501C111.501 186.109 112.169 184.658 112.56 183.172C112.665 182.775 112.775 182.374 112.889 181.972C114.811 177.078 117.379 170.397 119.259 165.769C144.058 165.035 170.129 163.52 183.215 160.439C183.225 160.437 183.234 160.436 183.244 160.435C184.509 151.832 184.537 142.173 184.005 133.084ZM56.5584 154.767C56.5584 154.767 56.2459 152.753 56.192 150.453C56.4814 151.973 56.7945 153.49 57.1287 155.009C56.9407 154.924 56.7517 154.839 56.5584 154.767Z" fill="black"/>
<path d="M33.9824 210.912C33.9824 210.912 44.5852 242.255 77.705 235.692C77.705 235.692 85.0527 201.191 91.2118 196.112C95.184 192.837 103.955 186.964 105.828 182.716C107.737 178.384 115.232 158.279 116.69 155.849C118.149 153.418 100.892 125.474 100.892 125.474L64.5452 144.227L44.3201 180.154C44.3201 180.154 40.4404 203.348 33.9824 210.912Z" fill="white"/>
<path d="M43.966 182.915C43.966 182.915 41.3714 202.297 32.803 212.424" stroke="#263238" stroke-width="0.528" stroke-miterlimit="10" stroke-linecap="round" stroke-linejoin="round"/>
<path d="M77.7053 235.693C77.7053 235.693 85.015 202.31 91.2121 196.113C91.2121 196.113 105.213 187.968 107.737 178.383C109.486 171.746 112.664 164.096 114.183 160.623" stroke="#263238" stroke-width="0.528" stroke-miterlimit="10" stroke-linecap="round" stroke-linejoin="round"/>
<path d="M80.6536 161.678C80.1114 161.341 89.1254 168.564 89.4755 178.383" stroke="#263238" stroke-width="0.528" stroke-miterlimit="10" stroke-linecap="round" stroke-linejoin="round"/>
<path d="M178.42 155.643C149.232 162.529 55.2266 161.605 55.2266 161.605C54.4346 159.936 53.479 155.733 52.555 150.865C50.707 141.092 48.9804 128.636 48.9804 128.636L45.8705 128.42C45.8705 128.42 45.353 122.865 44.825 117.258C44.3023 111.65 47.4439 111.656 47.4439 111.656L47.2169 92.2465L47.1588 87.3994C61.4782 83.6612 104.647 87.5156 104.647 87.5156L105.994 92.1937L106.744 95.5095L174.687 93.5929C180.928 109.702 178.42 155.643 178.42 155.643Z" fill="#92E3A9"/>
<path d="M167.466 124.458L122.956 126.594C121.123 126.682 119.566 125.267 119.478 123.434L119.044 114.392C118.956 112.559 120.371 111.002 122.204 110.914L166.714 108.778C168.547 108.689 170.104 110.104 170.192 111.937L170.626 120.979C170.714 122.812 169.3 124.369 167.466 124.458Z" fill="#263238"/>
<path d="M170.831 130.173L170.97 131.677L119.66 133.665L119.617 132.314L170.831 130.173Z" fill="#263238"/>
<path d="M171.085 135.406L171.128 136.757L119.822 138.655L119.779 137.304L171.085 135.406Z" fill="#263238"/>
<path opacity="0.3" d="M174.688 93.5948C174.688 93.5948 182.261 129.5 178.421 155.646C178.421 155.646 130.543 161.26 114.149 160.355L113.476 151.617L114.848 151.403C114.848 151.403 108.224 101.531 106.743 95.5083C106.743 95.5083 163.759 91.3471 174.688 93.5948Z" fill="black"/>
<path opacity="0.8" d="M111.898 151.487L112.472 158.093C112.472 158.093 64.2089 160.203 59.9675 158.672C55.7261 157.14 60.1924 154.682 71.4167 153.801C82.6404 152.92 111.898 151.487 111.898 151.487Z" fill="white"/>
<path d="M83.086 123.472C85.522 123.472 87.4969 121.686 87.4969 119.482C87.4969 117.279 85.522 115.492 83.086 115.492C80.6499 115.492 78.675 117.279 78.675 119.482C78.675 121.686 80.6499 123.472 83.086 123.472Z" fill="#263238"/>
<path d="M48.98 128.634C50.0898 140.248 51.9542 150.404 55.2252 161.606C75.6952 161.431 96.1615 161.201 116.623 160.547C137.087 159.892 158.121 158.513 178.42 155.646C178.42 155.646 182.056 123.565 174.687 93.5949C166.548 91.9011 106.969 95.5021 106.969 95.5021" stroke="#263238" stroke-width="0.528" stroke-miterlimit="10" stroke-linecap="round" stroke-linejoin="round"/>
<path d="M111.898 151.487L112.472 158.093L66.5543 159.152C64.6583 159.314 61.7089 159.562 59.967 158.671C59.1713 158.264 58.6011 157.27 58.9754 156.459C59.3128 155.728 60.2046 155.472 60.9929 155.31C66.6124 154.155 72.3449 153.667 78.0658 153.244C90.3096 152.34 102.575 151.726 114.848 151.404C114.594 151.41 111.596 126.699 111.264 124.42C109.965 115.494 108.729 106.536 107.126 97.6584C106.506 94.2249 105.758 90.8304 104.648 87.5166C85.7255 86.1644 65.9651 84.9115 47.1577 87.4015C47.3293 95.7819 47.0204 103.261 47.4449 111.655" stroke="#263238" stroke-width="0.528" stroke-miterlimit="10" stroke-linecap="round" stroke-linejoin="round"/>
<path d="M54.5233 159.116C54.5233 159.116 54.3675 158.709 54.3206 158.084" stroke="#263238" stroke-width="0.528" stroke-linecap="round" stroke-linejoin="round"/>
<path d="M54.6257 156.06C55.3296 154.302 57.4373 152.32 63.163 151.683C73.6121 150.521 96.3932 148.432 109.754 147.922" stroke="#263238" stroke-width="0.528" stroke-linecap="round" stroke-linejoin="round" stroke-dasharray="2.07 2.07"/>
<path d="M110.789 147.885C111.148 147.873 111.5 147.862 111.843 147.853C111.795 147.504 111.747 147.154 111.699 146.805" stroke="#263238" stroke-width="0.528" stroke-linecap="round" stroke-linejoin="round"/>
<path d="M111.418 144.774C109.014 127.489 106.354 110.335 103.306 93.1482" stroke="#263238" stroke-width="0.528" stroke-linecap="round" stroke-linejoin="round" stroke-dasharray="2.05 2.05"/>
<path d="M103.127 92.1391C103.065 91.7917 103.003 91.4448 102.941 91.0974C102.941 91.0974 102.573 91.0694 101.89 91.0203" stroke="#263238" stroke-width="0.528" stroke-linecap="round" stroke-linejoin="round"/>
<path d="M99.7503 90.8726C90.9707 90.2854 66.0005 88.8266 49.3411 89.966" stroke="#263238" stroke-width="0.528" stroke-linecap="round" stroke-linejoin="round" stroke-dasharray="2.15 2.15"/>
<path d="M48.2656 90.0442C47.9108 90.0716 47.5607 90.1002 47.2144 90.1297" stroke="#263238" stroke-width="0.528" stroke-linecap="round" stroke-linejoin="round"/>
<path d="M45.8732 128.419L44.6119 114.956C44.4519 113.251 45.7365 111.754 47.4462 111.655C55.2067 111.206 75.2823 110.152 82.988 110.769C86.6882 111.065 90.6999 112.251 92.503 115.789C93.9883 118.704 94.2132 123.077 91.7121 125.474C87.91 129.117 80.7017 128.837 75.7987 129.009C66.6664 129.331 45.8806 128.497 45.8732 128.419Z" stroke="#263238" stroke-width="0.528" stroke-miterlimit="10" stroke-linecap="round" stroke-linejoin="round"/>
<path d="M93.606 120.19C93.6218 119.814 95.5253 127.923 88.5024 130.599C81.4794 133.274 48.98 132.434 48.98 132.434V128.633C48.98 128.633 71.9739 129.115 75.7982 129.009C79.6225 128.903 93.1915 130.179 93.606 120.19Z" fill="#263238"/>
<path d="M86.8508 165.492C86.8508 165.492 92.5934 168.857 94.7465 175.173" stroke="#263238" stroke-width="0.528" stroke-miterlimit="10" stroke-linecap="round" stroke-linejoin="round"/>
<path d="M44.7681 113.679C44.7681 113.679 72.9437 112.354 80.1119 112.593C87.28 112.832 90.7938 114.407 91.5098 118.901C92.2258 123.396 87.8772 126.214 84.4129 126.691C80.9482 127.168 45.8737 127.374 45.8737 127.374" stroke="#263238" stroke-width="0.528" stroke-miterlimit="10" stroke-linecap="round" stroke-linejoin="round" stroke-dasharray="2.11 2.11"/>
<path d="M64.1281 168.111C64.1281 168.111 59.7673 152.963 51.7338 149.979C51.7338 149.979 50.1271 139.641 53.5702 139.071C57.0127 138.503 66.653 132.134 64.1281 124.187C61.6032 116.239 54.029 128.174 48.9797 128.633C43.9305 129.092 38.4219 135.761 38.6515 141.492C38.8812 147.224 33.3726 158.012 34.7496 164.208C36.1266 170.406 44.619 181.422 45.3075 187.161" fill="white"/>
<path d="M64.1281 168.111C64.1281 168.111 59.7673 152.963 51.7338 149.979C51.7338 149.979 50.1271 139.641 53.5702 139.071C57.0127 138.503 66.653 132.134 64.1281 124.187C61.6032 116.239 54.029 128.174 48.9797 128.633C43.9305 129.092 38.4219 135.761 38.6515 141.492C38.8812 147.224 33.3726 158.012 34.7496 164.208C36.1266 170.406 44.619 181.422 45.3075 187.161" stroke="#263238" stroke-width="0.528" stroke-miterlimit="10" stroke-linecap="round" stroke-linejoin="round"/>
<path d="M53.5635 126.301C53.5635 126.301 59.6085 127.398 62.8964 123.565C66.1843 119.73 62.3985 119.482 62.3985 119.482L53.5635 126.301Z" fill="white" stroke="#263238" stroke-width="0.528" stroke-miterlimit="10" stroke-linecap="round" stroke-linejoin="round"/>
<path d="M42.7664 134.857C43.8657 134.929 44.9449 135.283 45.8731 135.876" stroke="#263238" stroke-width="0.528" stroke-miterlimit="10" stroke-linecap="round" stroke-linejoin="round"/>
<path d="M42.5837 137.053C43.6762 137.154 44.7375 137.574 45.6034 138.248" stroke="#263238" stroke-width="0.528" stroke-miterlimit="10" stroke-linecap="round" stroke-linejoin="round"/>
<path d="M58.9011 157.346C58.9011 157.346 84.7874 156.01 91.5875 156.398" stroke="#263238" stroke-width="0.528" stroke-miterlimit="10" stroke-linecap="round" stroke-linejoin="round"/>
<path d="M85.2888 154.425C85.2888 154.425 91.7996 153.918 95.8567 154.425" stroke="#263238" stroke-width="0.528" stroke-miterlimit="10" stroke-linecap="round" stroke-linejoin="round"/>
<path d="M101.781 156.328H112.319" stroke="#263238" stroke-width="0.528" stroke-miterlimit="10" stroke-linecap="round" stroke-linejoin="round"/>
<path d="M108.153 98.4646C108.153 98.4646 154.422 94.3341 173.013 96.6927C173.013 96.6927 178.029 105.916 176.94 153.198C176.94 153.198 146.847 157.346 113.959 157.881" stroke="#263238" stroke-width="0.528" stroke-miterlimit="10" stroke-linecap="round" stroke-linejoin="round" stroke-dasharray="2.11 2.11"/>
<g opacity="0.1">
<path d="M233.406 163.885C232.091 158.294 230.164 156.192 228.235 154.577C228.235 154.577 228.19 151.398 225.713 149.602C225.085 149.04 224.355 148.522 223.584 148.026C221.258 146.283 218.696 144.31 218.696 144.31C217.492 140.825 215.862 136.606 214.101 132.456L214.189 133.4C212.385 128.992 210.615 124.602 210.117 123.146C210.114 123.136 210.11 123.125 210.107 123.116C210.621 124.519 211.168 125.873 211.747 127.127L205.131 103.762C204.974 102.822 204.814 101.897 204.647 101.006C204.334 98.3785 203.468 93.3904 201.394 93.0414C201.317 93.0261 201.241 93.0177 201.162 93.0182C201.162 93.0182 198.72 91.9585 198.72 96.2976C195.81 97.267 194.685 99.4403 194.403 102.048C194.266 102.797 194.232 103.62 194.354 104.528C194.404 105.483 194.518 106.46 194.662 107.432L185.336 95.155L184.426 93.9575L172.876 78.7501L157.335 58.2937C154.904 55.0962 150.341 54.47 147.144 56.9014L127.88 71.5429L120.352 77.2579C114.579 80.2628 116.087 86.198 117.687 88.3037L151.303 132.556C150.972 132.52 150.782 132.531 150.782 132.531C150.782 132.531 149.82 130.263 147.444 130.625C146.969 130.64 146.494 130.79 146.028 131.094C145.645 131.289 145.336 131.583 145.086 131.954C144.845 132.241 144.608 132.573 144.379 132.965C143.166 135.037 144.285 140.1 146.034 146.286C146.145 146.686 146.254 147.07 146.361 147.432C146.366 147.45 146.372 147.471 146.378 147.49C146.524 147.999 146.674 148.513 146.826 149.034C148.537 154.971 151.738 166.623 152.328 172.334C152.37 172.887 152.397 173.427 152.409 173.955C152.448 180.534 149.527 191.551 150.782 196.099C150.947 196.696 151.113 197.27 151.285 197.832C152.218 200.874 153.055 203.75 154.521 206.61C156.307 210.091 158.434 213.435 160.423 216.808C164.078 223.01 167.86 229.137 171.766 235.183C173.563 237.964 175.671 240.495 177.71 243.115C178.641 244.312 180.683 246.115 181.038 247.651C181.038 247.651 199.109 249.146 209.228 242.718L208.275 228.338L215.058 189.342C216.996 186.404 222.957 180.657 224.176 178.839C224.789 177.936 225.392 177.042 225.977 176.162C230.441 171.999 232.676 168.749 233.655 165.015C233.655 165.013 233.585 164.586 233.406 163.885ZM170.116 171.515C170.115 171.513 170.114 171.508 170.113 171.505C170.114 171.51 170.116 171.514 170.118 171.518C170.118 171.518 170.116 171.516 170.116 171.515ZM170.838 172.405L170.751 172.232C171.583 172.636 173.587 173.46 176.55 173.923C174.453 173.679 172.072 173.344 170.838 172.405ZM178.451 174.151H178.449C178.765 174.178 179.089 174.199 179.421 174.217C179.129 174.219 178.807 174.199 178.451 174.151ZM170.638 172.006L169.426 169.597C167.733 164.75 163.917 153.325 163.901 153.278C163.9 153.277 163.9 153.276 163.9 153.275C163.897 153.262 162.903 148.562 160.921 143.639C162.686 144.256 164.716 144.007 166.316 142.791L175.554 135.774C176.508 136.349 177.487 136.865 178.443 137.321L187.094 144.087L180.232 172.298L170.638 172.006ZM205.669 107.029V107.028C206.383 110.401 207.521 115.246 209.023 119.941C207.89 116.557 206.484 111.969 205.669 107.029Z" fill="black"/>
<path d="M166.451 242.591L166.507 242.841C166.507 242.841 166.488 242.75 166.451 242.591Z" fill="black"/>
</g>
<path d="M198.538 108.067C199.086 107.716 206.807 103.504 210.667 116.138C214.527 128.772 219.09 150.275 219.09 150.275L209.884 152.078C209.884 152.078 201.353 147.537 193.707 136.166C193.707 136.166 182.989 133.389 178.323 126.787C174.081 120.788 187.131 98.7676 187.131 98.7676L198.538 108.067Z" fill="white"/>
<path d="M195.216 123.791C197.499 127.213 201.818 134.409 207.647 136.676" stroke="#263238" stroke-width="0.528" stroke-miterlimit="10" stroke-linecap="round" stroke-linejoin="round"/>
<path d="M188.764 127.472C189.841 127.899 192.484 129.416 193.707 129.474C193.707 129.474 199.087 140.126 207.971 143.582" stroke="#263238" stroke-width="0.528" stroke-miterlimit="10" stroke-linecap="round" stroke-linejoin="round"/>
<path d="M183.828 131.392C187.131 134.155 191.06 136.041 193.707 136.166C193.707 136.166 199.087 146.818 207.971 150.274" stroke="#263238" stroke-width="0.528" stroke-miterlimit="10" stroke-linecap="round" stroke-linejoin="round"/>
<path d="M203.579 116.78L174.382 138.96C171.847 140.885 168.231 140.392 166.305 137.857L125.751 84.471C123.826 81.9361 124.319 78.3204 126.854 76.3947L156.052 54.215C158.587 52.2894 162.203 52.7831 164.128 55.318L204.682 108.704C206.609 111.239 206.114 114.854 203.579 116.78Z" fill="#263238"/>
<path d="M202.736 115.63L175.944 135.987C172.74 138.418 168.184 137.798 165.753 134.594L127.025 83.6103C126.379 82.7576 125.946 81.805 125.726 80.8193C125.107 78.1281 126.073 75.204 128.417 73.4252L135.945 67.7101L155.209 53.0686C158.406 50.6372 162.969 51.2634 165.4 54.461L180.941 74.9173L192.491 90.1247L204.128 105.445C206.559 108.643 205.933 113.206 202.736 115.63Z" fill="#92E3A9"/>
<path opacity="0.1" d="M180.94 74.9178L135.944 67.7106L155.208 53.0691C158.406 50.6377 162.969 51.2639 165.4 54.4615L180.94 74.9178Z" fill="black"/>
<path opacity="0.1" d="M202.736 115.63L175.944 135.987C172.74 138.418 168.184 137.798 165.753 134.595L127.025 83.6103C126.379 82.7576 125.946 81.8051 125.726 80.8193L193.401 91.3228L204.128 105.446C206.559 108.643 205.933 113.206 202.736 115.63Z" fill="black"/>
<path d="M167.367 69.2107L162.634 72.8064C161.688 73.525 160.338 73.3407 159.619 72.3946L153.889 64.8516C153.17 63.9054 153.355 62.5553 154.301 61.8367L159.035 58.241C159.981 57.5219 161.331 57.7067 162.049 58.6528L167.779 66.1959C168.498 67.142 168.314 68.4921 167.367 69.2107Z" fill="white" stroke="#263238" stroke-width="0.528" stroke-miterlimit="10" stroke-linecap="round" stroke-linejoin="round"/>
<path d="M156.771 59.9607L164.937 71.0571" stroke="#263238" stroke-width="0.528" stroke-miterlimit="10" stroke-linecap="round" stroke-linejoin="round"/>
<path d="M156.771 68.6441L164.937 62.4539" stroke="#263238" stroke-width="0.528" stroke-miterlimit="10" stroke-linecap="round" stroke-linejoin="round"/>
<path d="M172.587 132.663L171.195 133.689L154.189 111.301L155.568 110.255L172.587 132.663Z" fill="#263238"/>
<path d="M174.945 130.918L173.553 131.95L156.527 109.529L157.899 108.483L174.945 130.918Z" fill="#263238"/>
<path d="M177.304 129.179L175.911 130.205L158.859 107.757L160.238 106.711L177.304 129.179Z" fill="#263238"/>
<path d="M179.661 127.434L178.27 128.46L161.443 106.305L162.816 105.26L179.661 127.434Z" fill="#263238"/>
<path d="M182.206 125.556L180.814 126.582L163.961 104.393L165.34 103.347L182.206 125.556Z" fill="#263238"/>
<path d="M182.206 99.4482L180.814 100.474L163.961 78.2854L165.34 77.24L182.206 99.4482Z" fill="#263238"/>
<path d="M145.5 60.5109L143.344 62.1487L190.838 124.671L192.994 123.033L145.5 60.5109Z" fill="#263238"/>
<path d="M202.736 115.63L175.944 135.987C172.74 138.418 168.184 137.798 165.753 134.594L127.025 83.6103C126.379 82.7576 125.946 81.805 125.726 80.8193C125.107 78.1281 126.073 75.204 128.417 73.4252L135.945 67.7101L155.209 53.0686C158.406 50.6372 162.969 51.2634 165.4 54.461L180.941 74.9173L192.491 90.1247L204.128 105.445C206.559 108.643 205.933 113.206 202.736 115.63Z" stroke="#263238" stroke-width="0.528" stroke-miterlimit="10" stroke-linecap="round" stroke-linejoin="round"/>
<path d="M181.036 247.649C181.036 247.649 212.22 258.745 221.654 234.582C221.654 234.582 206.896 216.643 214.953 201.965C220.024 192.726 234.042 172.329 234.042 172.329C234.042 172.329 239.896 166.769 241.721 161.182C241.721 161.182 240.718 154.959 236.301 150.746C236.301 150.746 236.256 147.566 233.779 145.771C231.303 143.975 226.762 140.479 226.762 140.479C226.762 140.479 219.295 122.567 218.184 119.315C217.072 116.062 214.851 109.954 213.735 103.199C212.619 96.4428 211.592 89.1649 209.228 89.1876C209.228 89.1876 206.786 88.1279 206.786 92.467C206.786 92.467 201.668 95.1023 202.419 100.692C203.171 106.281 203.872 109.163 203.672 112.31C203.473 115.457 204.479 126.361 207.005 129.781C207.005 129.781 207.848 145.094 209.111 149.082C209.15 149.204 209.189 149.316 209.228 149.416C210.555 152.786 197.26 165.81 190.064 169.296C190.064 169.296 189.312 170.703 186.518 170.32C183.724 169.936 178.997 169.755 178.183 167.684C177.368 165.614 171.966 149.444 171.966 149.444C171.966 149.444 167.589 128.697 158.847 128.698C158.847 128.698 157.517 125.527 154.093 127.262C150.67 128.996 152.911 138.435 154.426 143.599C155.941 148.763 159.779 162.339 160.403 168.586C161.027 174.832 157.488 187.342 158.847 192.265C160.205 197.187 161.651 200.51 165.898 208.567C170.145 216.625 179.544 240.625 181.036 247.649Z" fill="white"/>
<path d="M181.037 247.649C181.037 247.649 174.363 222.523 164.55 206.281C154.737 190.039 160.489 184.287 160.489 170.752C160.489 157.217 149.473 134.208 152.443 129.132C155.414 124.056 159.474 128.117 161.166 132.854C162.858 137.591 160.489 140.298 155.752 140.636" stroke="#263238" stroke-width="0.528" stroke-miterlimit="10" stroke-linecap="round" stroke-linejoin="round"/>
<path d="M158.846 128.698C158.846 128.698 164.54 128.354 168.043 137.462C171.546 146.57 177.15 169.69 182.989 176.696" stroke="#263238" stroke-width="0.528" stroke-miterlimit="10" stroke-linecap="round" stroke-linejoin="round"/>
<path d="M178.38 168.165C178.413 168.238 186.535 172.768 199.146 168.798" stroke="#263238" stroke-width="0.528" stroke-miterlimit="10" stroke-linecap="round" stroke-linejoin="round"/>
<path d="M159.926 155.431C161.169 153.871 163.293 153.066 165.259 153.409" stroke="#263238" stroke-width="0.528" stroke-miterlimit="10" stroke-linecap="round" stroke-linejoin="round"/>
<path d="M161.01 158.299C162.079 156.978 163.953 156.368 165.595 156.807" stroke="#263238" stroke-width="0.528" stroke-miterlimit="10" stroke-linecap="round" stroke-linejoin="round"/>
<path d="M206.785 92.4661C198.495 95.227 204.663 107.745 203.671 112.309C202.679 116.873 205.259 125.624 207.243 130.366C207.243 135.922 209.227 149.415 209.227 149.415C208.002 153.704 197.78 166.358 187.848 170.319" stroke="#263238" stroke-width="0.528" stroke-miterlimit="10" stroke-linecap="round" stroke-linejoin="round"/>
<path d="M212.867 98.7681C212.867 98.7681 212.252 89.1865 209.227 89.1865C206.202 89.1865 206.384 95.6434 207.647 100.435C208.91 105.225 213.789 104.517 212.867 98.7681Z" stroke="#263238" stroke-width="0.528" stroke-miterlimit="10" stroke-linecap="round" stroke-linejoin="round"/>
<path d="M212.867 98.7681C212.867 98.7681 215.445 113.834 219.812 123.296" stroke="#263238" stroke-width="0.528" stroke-miterlimit="10" stroke-linecap="round" stroke-linejoin="round"/>
<path d="M224.958 158.573C227.068 155.154 228.006 151.917 228.789 147.798C228.59 145.218 225.629 136.787 222.167 128.624" stroke="#263238" stroke-width="0.528" stroke-miterlimit="10" stroke-linecap="round" stroke-linejoin="round"/>
<path d="M227.031 141.27C230.456 143.848 236.419 145.826 235.728 150.275C235.08 154.446 233.465 158.838 231.135 162.885" stroke="#263238" stroke-width="0.528" stroke-miterlimit="10" stroke-linecap="round" stroke-linejoin="round"/>
<path d="M222.414 235.692C222.414 235.692 210.477 219.117 212.867 207.671C214.626 199.25 225.933 184.526 234.042 172.328C238.507 168.165 240.742 164.915 241.721 161.181C240.286 154.133 237.968 152.078 235.729 150.274" stroke="#263238" stroke-width="0.528" stroke-miterlimit="10" stroke-linecap="round" stroke-linejoin="round"/>
<path d="M225.6 144.006C222.951 143.246 219.99 143.649 217.641 145.09" stroke="#263238" stroke-width="0.528" stroke-miterlimit="10" stroke-linecap="round" stroke-linejoin="round"/>
<path d="M224.944 146.843C223.336 146.592 221.648 146.888 220.222 147.673" stroke="#263238" stroke-width="0.528" stroke-miterlimit="10" stroke-linecap="round" stroke-linejoin="round"/>
</svg>
