<svg width="298" height="298" viewBox="0 0 298 298" fill="none" xmlns="http://www.w3.org/2000/svg">
<path opacity="0.7" d="M40.4869 99.5831C40.4869 99.5831 23.8723 142.488 47.22 185.707C70.5677 228.926 118.668 251.745 157.163 271.262C195.659 290.778 235.633 281.274 254.63 249.306C273.626 217.338 247.57 194.517 247.539 148.929C247.509 103.341 254.362 91.2707 229.681 52.756C205.001 14.2407 144.418 5.7167 98.6208 34.2824C52.8241 62.8481 40.4869 99.5831 40.4869 99.5831Z" fill="white"/>
<path d="M136.039 30.5866C209.964 24.0026 210.089 65.7113 243.397 104.568C276.706 143.424 283.834 161.041 271.278 205.833C258.721 250.624 216.408 285.738 164.062 265.843C111.717 245.948 81.7306 265.053 48.714 247.386C15.6974 229.719 3.43651 195.586 27.6043 155.358C51.7721 115.13 44.8859 38.7047 136.039 30.5866Z" fill="#92E3A9"/>
<path opacity="0.7" d="M136.039 30.5866C209.964 24.0026 210.089 65.7113 243.397 104.568C276.706 143.424 283.834 161.041 271.278 205.833C258.721 250.624 216.408 285.738 164.062 265.843C111.717 245.948 81.7306 265.053 48.714 247.386C15.6974 229.719 3.43651 195.586 27.6043 155.358C51.7721 115.13 44.8859 38.7047 136.039 30.5866Z" fill="white"/>
<path d="M156.634 51.4187L144.473 53.9797C142.834 54.3248 141.225 53.2758 140.879 51.6362L138.318 39.4755C137.973 37.8359 139.022 36.2267 140.662 35.8816L152.823 33.3206C154.462 32.9755 156.072 34.0244 156.417 35.664L158.978 47.8248C159.323 49.4644 158.274 51.0736 156.634 51.4187Z" stroke="#263238" stroke-width="0.596" stroke-miterlimit="10" stroke-linecap="round" stroke-linejoin="round"/>
<path d="M147.871 39.96L149.425 47.3402" stroke="#263238" stroke-width="0.596" stroke-miterlimit="10" stroke-linecap="round" stroke-linejoin="round"/>
<path d="M152.338 42.8728L144.958 44.4272" stroke="#263238" stroke-width="0.596" stroke-miterlimit="10" stroke-linecap="round" stroke-linejoin="round"/>
<path d="M279.215 181.426L267.054 183.987C265.415 184.332 263.806 183.283 263.461 181.643L260.9 169.482C260.554 167.843 261.603 166.233 263.243 165.888L275.404 163.327C277.043 162.982 278.653 164.031 278.998 165.671L281.559 177.832C281.904 179.471 280.855 181.08 279.215 181.426Z" stroke="#263238" stroke-width="0.596" stroke-miterlimit="10" stroke-linecap="round" stroke-linejoin="round"/>
<path d="M273.288 170.499L269.169 176.816" stroke="#263238" stroke-width="0.596" stroke-miterlimit="10" stroke-linecap="round" stroke-linejoin="round"/>
<path d="M274.388 175.717L268.07 171.597" stroke="#263238" stroke-width="0.596" stroke-miterlimit="10" stroke-linecap="round" stroke-linejoin="round"/>
<path d="M110.542 260.295L98.1354 259.578C96.4625 259.482 95.1847 258.047 95.2818 256.375L95.9982 243.968C96.0947 242.295 97.5293 241.017 99.2017 241.114L111.609 241.831C113.282 241.927 114.559 243.362 114.462 245.034L113.746 257.441C113.649 259.114 112.215 260.391 110.542 260.295Z" stroke="#263238" stroke-width="0.596" stroke-miterlimit="10" stroke-linecap="round" stroke-linejoin="round"/>
<path d="M108.636 250.921L101.107 250.486" stroke="#263238" stroke-width="0.596" stroke-miterlimit="10" stroke-linecap="round" stroke-linejoin="round"/>
<path d="M31.2619 173.556L19.4647 169.648C17.874 169.122 17.0122 167.405 17.539 165.814L21.447 154.017C21.9739 152.426 23.6904 151.565 25.2811 152.092L37.0783 155.999C38.669 156.526 39.5308 158.243 39.004 159.834L35.096 171.631C34.5691 173.221 32.8527 174.083 31.2619 173.556Z" stroke="#263238" stroke-width="0.596" stroke-miterlimit="10" stroke-linecap="round" stroke-linejoin="round"/>
<path d="M32.989 160.454L23.5537 165.194" stroke="#263238" stroke-width="0.596" stroke-miterlimit="10" stroke-linecap="round" stroke-linejoin="round"/>
<path d="M27.5749 158.505C27.9015 159.154 27.6393 159.946 26.9897 160.272C26.34 160.598 25.5485 160.336 25.2225 159.686C24.8965 159.037 25.1581 158.245 25.8078 157.919C26.4574 157.593 27.2489 157.855 27.5749 158.505Z" stroke="#263238" stroke-width="0.596" stroke-miterlimit="10" stroke-linecap="round" stroke-linejoin="round"/>
<path d="M31.3201 165.961C31.6467 166.611 31.3844 167.402 30.7348 167.728C30.0852 168.054 29.2937 167.793 28.9677 167.143C28.641 166.493 28.9033 165.702 29.5529 165.376C30.2026 165.05 30.994 165.311 31.3201 165.961Z" stroke="#263238" stroke-width="0.596" stroke-miterlimit="10" stroke-linecap="round" stroke-linejoin="round"/>
<path d="M153.589 238.871C150.144 243.859 143.302 245.105 138.314 241.66C136.389 240.325 135.024 238.489 134.261 236.451C133.063 233.203 133.409 229.442 135.524 226.379C137.002 224.245 139.1 222.797 141.407 222.111C144.494 221.182 147.951 221.623 150.806 223.595C155.794 227.04 157.04 233.882 153.589 238.871Z" fill="#92E3A9"/>
<mask id="mask0_16002_7601" style="mask-type:luminance" maskUnits="userSpaceOnUse" x="133" y="221" width="23" height="23">
<path d="M153.589 238.871C150.144 243.859 143.302 245.105 138.314 241.66C136.389 240.325 135.024 238.489 134.261 236.451C133.063 233.203 133.409 229.442 135.524 226.379C137.002 224.245 139.1 222.797 141.407 222.111C144.494 221.182 147.951 221.623 150.806 223.595C155.794 227.04 157.04 233.882 153.589 238.871Z" fill="white"/>
</mask>
<g mask="url(#mask0_16002_7601)">
<path opacity="0.3" d="M152.158 237.879C149.256 242.076 143.501 243.126 139.304 240.224C135.107 237.323 134.058 231.568 136.959 227.371C139.861 223.174 145.615 222.125 149.812 225.026C154.009 227.928 155.059 233.682 152.158 237.879Z" fill="black" fill-opacity="0.7"/>
</g>
<mask id="mask1_16002_7601" style="mask-type:luminance" maskUnits="userSpaceOnUse" x="133" y="221" width="23" height="23">
<path d="M153.589 238.871C150.144 243.859 143.302 245.105 138.314 241.66C136.389 240.325 135.024 238.489 134.261 236.451C133.063 233.203 133.409 229.442 135.524 226.379C137.002 224.245 139.1 222.797 141.407 222.111C144.494 221.182 147.951 221.623 150.806 223.595C155.794 227.04 157.04 233.882 153.589 238.871Z" fill="white"/>
</mask>
<g mask="url(#mask1_16002_7601)">
<path d="M152.158 237.879C149.256 242.076 143.501 243.126 139.304 240.224C135.107 237.323 134.058 231.568 136.959 227.371C139.861 223.174 145.615 222.125 149.812 225.026C154.009 227.928 155.059 233.682 152.158 237.879Z" stroke="#263238" stroke-width="0.596" stroke-miterlimit="10" stroke-linecap="round" stroke-linejoin="round"/>
</g>
<mask id="mask2_16002_7601" style="mask-type:luminance" maskUnits="userSpaceOnUse" x="133" y="221" width="23" height="23">
<path d="M153.589 238.871C150.144 243.859 143.302 245.105 138.314 241.66C136.389 240.325 135.024 238.489 134.261 236.451C133.063 233.203 133.409 229.442 135.524 226.379C137.002 224.245 139.1 222.797 141.407 222.111C144.494 221.182 147.951 221.623 150.806 223.595C155.794 227.04 157.04 233.882 153.589 238.871Z" fill="white"/>
</mask>
<g mask="url(#mask2_16002_7601)">
<path d="M146.926 228.014L147.37 227.373L148.479 228.14L148.035 228.781C148.861 229.643 148.843 230.724 148.033 231.894L147.845 232.166L146.563 231.28L146.811 230.922C147.237 230.305 147.152 229.901 146.721 229.603C146.289 229.305 145.88 229.368 145.454 229.984C145.028 230.601 144.977 231.203 145.386 232.56C145.881 234.215 145.795 235.157 145.113 236.144C144.304 237.315 143.278 237.717 142.18 237.249L141.745 237.877L140.636 237.11L141.071 236.481C140.234 235.611 140.261 234.519 141.07 233.348L141.479 232.756L142.761 233.642L142.293 234.32C141.867 234.937 141.984 235.346 142.416 235.644C142.847 235.942 143.272 235.908 143.698 235.291C144.124 234.675 144.184 234.061 143.766 232.715C143.262 231.073 143.357 230.119 144.039 229.133C144.841 227.974 145.833 227.567 146.926 228.014Z" fill="#92E3A9" stroke="#263238" stroke-width="0.596" stroke-miterlimit="10" stroke-linecap="round" stroke-linejoin="round"/>
</g>
<mask id="mask3_16002_7601" style="mask-type:luminance" maskUnits="userSpaceOnUse" x="133" y="221" width="23" height="23">
<path d="M153.589 238.871C150.144 243.859 143.302 245.105 138.314 241.66C136.389 240.325 135.024 238.489 134.261 236.451C133.063 233.203 133.409 229.442 135.524 226.379C137.002 224.245 139.1 222.797 141.407 222.111C144.494 221.182 147.951 221.623 150.806 223.595C155.794 227.04 157.04 233.882 153.589 238.871Z" fill="white"/>
</mask>
<g mask="url(#mask3_16002_7601)">
<path opacity="0.2" d="M141.496 223.726C141.496 229.138 138.594 233.87 134.261 236.451C133.063 233.203 133.408 229.442 135.524 226.379C137.002 224.245 139.1 222.797 141.407 222.111C141.466 222.642 141.496 223.178 141.496 223.726Z" fill="black" fill-opacity="0.7"/>
</g>
<path d="M153.589 238.871C150.144 243.859 143.302 245.105 138.314 241.66C136.389 240.325 135.024 238.489 134.261 236.451C133.063 233.203 133.409 229.442 135.524 226.379C137.002 224.245 139.1 222.797 141.407 222.111C144.494 221.182 147.951 221.623 150.806 223.595C155.794 227.04 157.04 233.882 153.589 238.871Z" stroke="#263238" stroke-width="0.596" stroke-miterlimit="10" stroke-linecap="round" stroke-linejoin="round"/>
<path d="M128.879 234.367C134.944 234.367 139.86 229.45 139.86 223.386C139.86 217.321 134.944 212.404 128.879 212.404C122.814 212.404 117.898 217.321 117.898 223.386C117.898 229.45 122.814 234.367 128.879 234.367Z" fill="#92E3A9" stroke="#263238" stroke-width="0.596" stroke-miterlimit="10" stroke-linecap="round" stroke-linejoin="round"/>
<path opacity="0.3" d="M128.879 232.624C133.981 232.624 138.118 228.488 138.118 223.386C138.118 218.283 133.981 214.147 128.879 214.147C123.777 214.147 119.641 218.283 119.641 223.386C119.641 228.488 123.777 232.624 128.879 232.624Z" fill="black" fill-opacity="0.7"/>
<path d="M128.879 232.624C133.981 232.624 138.118 228.488 138.118 223.386C138.118 218.283 133.981 214.147 128.879 214.147C123.777 214.147 119.641 218.283 119.641 223.386C119.641 228.488 123.777 232.624 128.879 232.624Z" stroke="#263238" stroke-width="0.596" stroke-miterlimit="10" stroke-linecap="round" stroke-linejoin="round"/>
<path d="M128.204 218.246V217.467H129.553V218.246C130.722 218.486 131.322 219.384 131.322 220.808V221.138H129.764V220.703C129.764 219.954 129.464 219.669 128.94 219.669C128.415 219.669 128.115 219.954 128.115 220.703C128.115 221.453 128.415 221.977 129.523 222.861C130.873 223.94 131.337 224.764 131.337 225.963C131.337 227.387 130.722 228.301 129.553 228.54V229.305H128.204V228.54C127.021 228.301 126.421 227.387 126.421 225.963V225.244H127.98V226.068C127.98 226.818 128.309 227.087 128.834 227.087C129.358 227.087 129.688 226.818 129.688 226.068C129.688 225.319 129.389 224.779 128.279 223.91C126.931 222.847 126.466 222.007 126.466 220.808C126.466 219.399 127.051 218.5 128.204 218.246Z" fill="#92E3A9" stroke="#263238" stroke-width="0.596" stroke-miterlimit="10" stroke-linecap="round" stroke-linejoin="round"/>
<path d="M190.525 232.603C193.797 227.496 192.31 220.704 187.203 217.432C182.096 214.16 175.304 215.647 172.032 220.754C168.76 225.86 170.248 232.652 175.354 235.924C180.461 239.196 187.253 237.709 190.525 232.603Z" fill="#92E3A9" stroke="#263238" stroke-width="0.596" stroke-miterlimit="10" stroke-linecap="round" stroke-linejoin="round"/>
<path opacity="0.3" d="M188.046 220.405C191.518 224.144 191.302 229.989 187.564 233.461C183.825 236.934 177.979 236.718 174.507 232.979C171.035 229.241 171.251 223.395 174.989 219.923C178.728 216.45 184.574 216.666 188.046 220.405Z" fill="black" fill-opacity="0.7"/>
<path d="M188.046 220.405C191.518 224.144 191.302 229.989 187.564 233.461C183.825 236.934 177.979 236.718 174.507 232.979C171.035 229.241 171.251 223.395 174.989 219.923C178.728 216.45 184.574 216.666 188.046 220.405Z" stroke="#263238" stroke-width="0.596" stroke-miterlimit="10" stroke-linecap="round" stroke-linejoin="round"/>
<path d="M177.284 223.385L176.754 222.814L177.742 221.896L178.273 222.468C179.292 221.847 180.343 222.098 181.312 223.141L181.537 223.383L180.395 224.444L180.099 224.126C179.589 223.576 179.176 223.572 178.792 223.929C178.407 224.286 178.381 224.698 178.891 225.248C179.401 225.796 179.978 225.976 181.392 225.87C183.115 225.742 184.016 226.03 184.832 226.909C185.8 227.952 185.972 229.04 185.278 230.011L185.798 230.571L184.81 231.489L184.29 230.929C183.259 231.559 182.198 231.297 181.23 230.254L180.74 229.726L181.882 228.666L182.443 229.269C182.953 229.819 183.378 229.792 183.762 229.435C184.146 229.078 184.204 228.657 183.694 228.107C183.184 227.558 182.598 227.367 181.194 227.485C179.481 227.623 178.57 227.324 177.754 226.446C176.796 225.413 176.612 224.357 177.284 223.385Z" fill="#92E3A9" stroke="#263238" stroke-width="0.596" stroke-miterlimit="10" stroke-linecap="round" stroke-linejoin="round"/>
<path opacity="0.2" d="M176.753 178.951C176.753 178.951 176.708 201.74 176.753 203.071C176.798 204.402 178.523 212.404 178.523 212.404L172.99 222.605L177.754 226.445L187.022 217.335C187.022 217.335 194.914 222.21 196.357 229.182C197.8 236.154 206.386 241.233 215.296 260.543C224.207 279.852 234.37 217.336 234.37 217.336L206.879 182.722L176.753 178.951Z" fill="black" fill-opacity="0.7"/>
<path d="M260.804 56.5067L252.382 138.683L247.203 189.236L174.825 181.822L160.741 180.379L151.724 179.456L159.716 101.439L165.324 46.7263L260.804 56.5067Z" fill="white"/>
<mask id="mask4_16002_7601" style="mask-type:luminance" maskUnits="userSpaceOnUse" x="151" y="46" width="110" height="144">
<path d="M260.804 56.5067L252.382 138.683L247.203 189.236L174.825 181.822L160.741 180.379L151.724 179.456L159.716 101.439L165.324 46.7263L260.804 56.5067Z" fill="white"/>
</mask>
<g mask="url(#mask4_16002_7601)">
<path d="M233.073 59.5749L191.858 55.3517C191.085 55.2724 190.393 55.8356 190.314 56.6092C190.235 57.3828 190.797 58.0742 191.571 58.1535L232.786 62.3767C233.56 62.456 234.251 61.8928 234.33 61.1192C234.41 60.3456 233.847 59.6542 233.073 59.5749Z" fill="#263238"/>
</g>
<mask id="mask5_16002_7601" style="mask-type:luminance" maskUnits="userSpaceOnUse" x="151" y="46" width="110" height="144">
<path d="M260.804 56.5067L252.382 138.683L247.203 189.236L174.825 181.822L160.741 180.379L151.724 179.456L159.716 101.439L165.324 46.7263L260.804 56.5067Z" fill="white"/>
</mask>
<g mask="url(#mask5_16002_7601)">
<path d="M222.18 64.2762L201.572 62.1646C201.185 62.1252 200.839 62.4065 200.799 62.7933C200.76 63.1801 201.041 63.5258 201.428 63.5658L222.036 65.6774C222.423 65.7167 222.768 65.4354 222.808 65.0486C222.848 64.6612 222.566 64.3155 222.18 64.2762Z" fill="#263238"/>
</g>
<mask id="mask6_16002_7601" style="mask-type:luminance" maskUnits="userSpaceOnUse" x="151" y="46" width="110" height="144">
<path d="M260.804 56.5067L252.382 138.683L247.203 189.236L174.825 181.822L160.741 180.379L151.724 179.456L159.716 101.439L165.324 46.7263L260.804 56.5067Z" fill="white"/>
</mask>
<g mask="url(#mask6_16002_7601)">
<path d="M244.853 124.926L177.959 118.072C177.573 118.032 177.227 118.314 177.187 118.701C177.148 119.087 177.429 119.433 177.816 119.473L244.709 126.328C245.096 126.367 245.442 126.086 245.481 125.699C245.521 125.312 245.24 124.966 244.853 124.926Z" fill="#263238"/>
<path d="M244.336 129.963L166.552 121.992C166.166 121.953 165.82 122.234 165.78 122.621C165.741 123.008 166.022 123.353 166.409 123.393L244.193 131.364C244.58 131.404 244.925 131.122 244.965 130.736C245.005 130.349 244.724 130.003 244.336 129.963Z" fill="#263238"/>
<path d="M222.039 132.768L166.036 127.03C165.65 126.99 165.304 127.272 165.264 127.658C165.225 128.045 165.506 128.391 165.893 128.431L221.895 134.17C222.282 134.209 222.628 133.928 222.668 133.541C222.708 133.154 222.426 132.808 222.039 132.768Z" fill="#263238"/>
</g>
<mask id="mask7_16002_7601" style="mask-type:luminance" maskUnits="userSpaceOnUse" x="99" y="81" width="151" height="122">
<path d="M118.483 81.0259L199.374 97.7774L249.136 108.081L234.385 179.327L231.515 193.191L229.677 202.067L152.881 186.166L99.0241 175.012L118.483 81.0259Z" fill="white"/>
</mask>
<g mask="url(#mask7_16002_7601)">
<path d="M165.154 132.458L162.879 154.671L241.294 162.703L243.569 140.491L165.154 132.458Z" fill="#BFBFBF" stroke="#263238" stroke-width="0.596" stroke-miterlimit="10"/>
</g>
<mask id="mask8_16002_7601" style="mask-type:luminance" maskUnits="userSpaceOnUse" x="151" y="46" width="110" height="144">
<path d="M260.804 56.5067L252.382 138.683L247.203 189.236L174.825 181.822L160.741 180.379L151.724 179.456L159.716 101.439L165.324 46.7263L260.804 56.5067Z" fill="white"/>
</mask>
<g mask="url(#mask8_16002_7601)">
<path d="M201.12 106.769C208.529 100.597 209.531 89.5876 203.359 82.1794C197.187 74.7711 186.178 73.769 178.769 79.9411C171.361 86.1132 170.359 97.1223 176.531 104.531C182.703 111.939 193.712 112.941 201.12 106.769Z" fill="#92E3A9"/>
<mask id="mask9_16002_7601" style="mask-type:luminance" maskUnits="userSpaceOnUse" x="172" y="75" width="36" height="36">
<path d="M207.109 96.4998C208.85 87.0157 202.573 77.916 193.089 76.175C183.605 74.434 174.505 80.711 172.764 90.195C171.023 99.6791 177.3 108.779 186.784 110.52C196.269 112.261 205.368 105.984 207.109 96.4998Z" fill="white"/>
</mask>
<g mask="url(#mask9_16002_7601)">
<path opacity="0.5" d="M201.121 106.769C208.529 100.597 209.531 89.5874 203.359 82.1791C197.187 74.7708 186.178 73.7687 178.769 79.9408C171.361 86.1129 170.359 97.1221 176.531 104.53C182.703 111.939 193.712 112.941 201.121 106.769Z" fill="white"/>
</g>
<path d="M201.12 106.769C208.529 100.597 209.531 89.5876 203.359 82.1794C197.187 74.7711 186.178 73.769 178.769 79.9411C171.361 86.1132 170.359 97.1223 176.531 104.531C182.703 111.939 193.712 112.941 201.12 106.769Z" stroke="#263238" stroke-width="0.596004" stroke-miterlimit="10"/>
<path d="M190.448 93.3078L204.966 100.612C205.786 98.9138 206.331 97.0465 206.534 95.0619C206.994 90.5793 205.629 86.3322 203.046 83.0513L190.448 93.3078Z" fill="white"/>
<path d="M190.543 92.5234L202.699 82.6268C200.908 80.4979 198.586 78.8136 195.91 77.7903L193.717 83.8105L190.543 92.5234Z" fill="#92E3A9"/>
<path d="M191.918 76.8101L190.444 91.1987L195.395 77.6051C194.288 77.2231 193.126 76.9531 191.918 76.8101Z" fill="#757575"/>
<path d="M189.691 93.1786L191.374 76.754C182.324 75.9744 174.289 82.593 173.36 91.6629C173.057 94.6167 173.548 97.4668 174.655 100.008L189.691 93.1786Z" fill="#999999"/>
<path d="M188.247 109.95C195.231 110.666 201.645 106.959 204.717 101.1L189.941 93.6663L174.878 100.508C177.296 105.595 182.234 109.334 188.247 109.95Z" fill="#BFBFBF"/>
<path d="M217.679 84.7625L215.687 84.5587C215.482 84.5378 215.333 84.3543 215.354 84.1492L215.558 82.1586C215.579 81.9536 215.762 81.8046 215.967 81.8254L217.958 82.0293C218.163 82.0501 218.313 82.2337 218.291 82.4387L218.087 84.4294C218.067 84.6344 217.884 84.784 217.679 84.7625Z" fill="#92E3A9" stroke="#263238" stroke-width="0.596" stroke-miterlimit="10"/>
<path d="M245.628 85.8722L219.967 83.2427C219.794 83.2248 219.668 83.0698 219.685 82.8964C219.703 82.7229 219.858 82.5966 220.032 82.6145L245.692 85.244C245.866 85.2619 245.992 85.4169 245.974 85.5903C245.956 85.7643 245.802 85.8901 245.628 85.8722Z" fill="#263238"/>
<path d="M242.975 86.9819L219.827 84.6099C219.654 84.592 219.527 84.437 219.545 84.2636C219.563 84.0901 219.718 83.9638 219.892 83.9817L243.04 86.3538C243.213 86.3716 243.339 86.5266 243.321 86.7C243.304 86.8735 243.149 86.9992 242.975 86.9819Z" fill="#263238"/>
<path d="M217.051 90.8852L215.06 90.6814C214.855 90.6605 214.705 90.4769 214.727 90.2719L214.93 88.2807C214.951 88.0756 215.135 87.9266 215.34 87.9475L217.331 88.1513C217.536 88.1722 217.685 88.3558 217.664 88.5608L217.461 90.5514C217.44 90.7571 217.256 90.906 217.051 90.8852Z" fill="#757575" stroke="#263238" stroke-width="0.596" stroke-miterlimit="10" stroke-linecap="round" stroke-linejoin="round"/>
<path d="M245.001 91.9948L219.34 89.3652C219.167 89.3473 219.041 89.1924 219.059 89.0189C219.076 88.8455 219.231 88.7192 219.405 88.737L245.066 91.3666C245.239 91.3845 245.365 91.5394 245.348 91.7129C245.33 91.8863 245.175 92.0127 245.001 91.9948Z" fill="#263238"/>
<path d="M242.348 93.104L219.2 90.7319C219.026 90.714 218.9 90.5591 218.918 90.3856C218.936 90.2122 219.091 90.0859 219.264 90.1037L242.412 92.4758C242.586 92.4937 242.712 92.6487 242.694 92.8221C242.677 92.9961 242.522 93.1219 242.348 93.104Z" fill="#263238"/>
<path d="M216.424 97.0079L214.432 96.8041C214.227 96.7832 214.078 96.5996 214.099 96.3946L214.303 94.404C214.324 94.1989 214.507 94.0499 214.712 94.0708L216.704 94.2746C216.909 94.2955 217.058 94.4791 217.037 94.6841L216.833 96.6747C216.812 96.8797 216.629 97.0287 216.424 97.0079Z" fill="#999999" stroke="#263238" stroke-width="0.596" stroke-miterlimit="10" stroke-linecap="round" stroke-linejoin="round"/>
<path d="M244.373 98.1176L218.713 95.488C218.539 95.4701 218.413 95.3152 218.431 95.1418C218.449 94.9683 218.604 94.842 218.777 94.8598L244.438 97.4894C244.611 97.5073 244.738 97.6622 244.72 97.8357C244.702 98.0091 244.547 98.1355 244.373 98.1176Z" fill="#263238"/>
<path d="M241.721 99.2268L218.573 96.8547C218.399 96.8368 218.273 96.6819 218.291 96.5085C218.309 96.335 218.464 96.2087 218.637 96.2265L241.785 98.5986C241.958 98.6165 242.085 98.7715 242.067 98.9449C242.049 99.1183 241.894 99.2447 241.721 99.2268Z" fill="#263238"/>
<path d="M215.796 103.131L213.805 102.927C213.6 102.906 213.451 102.722 213.472 102.517L213.676 100.526C213.697 100.321 213.88 100.172 214.085 100.193L216.077 100.397C216.282 100.418 216.431 100.601 216.41 100.806L216.206 102.797C216.185 103.002 216.002 103.151 215.796 103.131Z" fill="#BFBFBF" stroke="#263238" stroke-width="0.596" stroke-miterlimit="10"/>
<path d="M243.746 104.24L218.085 101.611C217.912 101.593 217.785 101.438 217.803 101.264C217.821 101.091 217.976 100.965 218.15 100.982L243.81 103.612C243.984 103.63 244.11 103.785 244.092 103.958C244.074 104.132 243.919 104.257 243.746 104.24Z" fill="#263238"/>
<path d="M241.093 105.349L217.945 102.977C217.772 102.959 217.645 102.804 217.663 102.631C217.681 102.458 217.836 102.331 218.009 102.349L241.158 104.721C241.331 104.739 241.457 104.894 241.439 105.067C241.422 105.241 241.267 105.367 241.093 105.349Z" fill="#263238"/>
<path d="M215.169 109.253L213.178 109.049C212.973 109.028 212.823 108.844 212.845 108.639L213.048 106.649C213.069 106.444 213.253 106.295 213.458 106.316L215.448 106.519C215.654 106.54 215.803 106.724 215.782 106.929L215.578 108.92C215.558 109.125 215.374 109.274 215.169 109.253Z" fill="white" stroke="#263238" stroke-width="0.596" stroke-miterlimit="10" stroke-linecap="round" stroke-linejoin="round"/>
<path d="M243.118 110.362L217.458 107.733C217.284 107.715 217.158 107.56 217.176 107.387C217.194 107.213 217.349 107.087 217.522 107.105L243.183 109.734C243.356 109.752 243.483 109.907 243.465 110.081C243.447 110.255 243.292 110.38 243.118 110.362Z" fill="#263238"/>
<path d="M240.466 111.472L217.318 109.1C217.144 109.082 217.018 108.927 217.036 108.754C217.054 108.58 217.208 108.454 217.382 108.472L240.53 110.844C240.703 110.862 240.83 111.017 240.812 111.19C240.795 111.364 240.64 111.489 240.466 111.472Z" fill="#263238"/>
</g>
<mask id="mask10_16002_7601" style="mask-type:luminance" maskUnits="userSpaceOnUse" x="151" y="46" width="110" height="144">
<path d="M260.804 56.5067L252.382 138.683L247.203 189.236L174.825 181.822L160.741 180.379L151.724 179.456L159.716 101.439L165.324 46.7263L260.804 56.5067Z" fill="white"/>
</mask>
<g mask="url(#mask10_16002_7601)">
<path d="M231.708 155.2L233.173 155.351L234.032 146.974L232.567 146.824L231.708 155.2Z" fill="#757575" stroke="#263238" stroke-width="0.596" stroke-miterlimit="10" stroke-linecap="round" stroke-linejoin="round"/>
<path d="M231.829 153.953L233.294 154.103L233.698 150.16L232.233 150.01L231.829 153.953Z" fill="#92E3A9" stroke="#263238" stroke-width="0.596" stroke-miterlimit="10"/>
<path d="M235.215 153.439L236.681 153.589L237.539 145.213L236.074 145.063L235.215 153.439Z" fill="#757575" stroke="#263238" stroke-width="0.596" stroke-miterlimit="10" stroke-linecap="round" stroke-linejoin="round"/>
<path d="M235.861 147.284L235.456 151.228L236.921 151.378L237.326 147.434L235.861 147.284Z" fill="#92E3A9" stroke="#263238" stroke-width="0.596" stroke-miterlimit="10"/>
<path d="M238.349 155.384L239.814 155.534L240.672 147.157L239.207 147.007L238.349 155.384Z" fill="#757575" stroke="#263238" stroke-width="0.596" stroke-miterlimit="10" stroke-linecap="round" stroke-linejoin="round"/>
<path d="M238.681 152.213L240.146 152.364L240.55 148.42L239.085 148.27L238.681 152.213Z" fill="#92E3A9" stroke="#263238" stroke-width="0.596" stroke-miterlimit="10"/>
<path d="M228.579 153.207L230.044 153.358L230.903 144.981L229.438 144.831L228.579 153.207Z" fill="#757575" stroke="#263238" stroke-width="0.596" stroke-miterlimit="10" stroke-linecap="round" stroke-linejoin="round"/>
<path d="M228.701 151.96L230.166 152.11L230.57 148.167L229.105 148.017L228.701 151.96Z" fill="#92E3A9" stroke="#263238" stroke-width="0.596" stroke-miterlimit="10"/>
<path d="M225.019 155.362L226.484 155.512L227.343 147.135L225.877 146.985L225.019 155.362Z" fill="#757575" stroke="#263238" stroke-width="0.596" stroke-miterlimit="10" stroke-linecap="round" stroke-linejoin="round"/>
<path d="M225.125 154.401L226.59 154.551L226.994 150.607L225.529 150.457L225.125 154.401Z" fill="#92E3A9" stroke="#263238" stroke-width="0.596" stroke-miterlimit="10"/>
<path d="M221.943 152.86L223.408 153.01L224.266 144.634L222.801 144.484L221.943 152.86Z" fill="#757575" stroke="#263238" stroke-width="0.596" stroke-miterlimit="10" stroke-linecap="round" stroke-linejoin="round"/>
<path d="M221.983 152.531L223.448 152.681L223.853 148.738L222.388 148.587L221.983 152.531Z" fill="#92E3A9" stroke="#263238" stroke-width="0.596" stroke-miterlimit="10"/>
<path d="M218.203 156.889L219.668 157.039L220.527 148.663L219.062 148.512L218.203 156.889Z" fill="#757575" stroke="#263238" stroke-width="0.596" stroke-miterlimit="10" stroke-linecap="round" stroke-linejoin="round"/>
<path d="M218.236 156.572L219.702 156.723L220.106 152.779L218.641 152.629L218.236 156.572Z" fill="#92E3A9" stroke="#263238" stroke-width="0.596" stroke-miterlimit="10"/>
<path d="M215.438 151.29L216.903 151.44L217.761 143.063L216.296 142.913L215.438 151.29Z" fill="#757575" stroke="#263238" stroke-width="0.596" stroke-miterlimit="10" stroke-linecap="round" stroke-linejoin="round"/>
<path d="M215.568 150.027L217.033 150.177L217.437 146.233L215.972 146.083L215.568 150.027Z" fill="#92E3A9" stroke="#263238" stroke-width="0.596" stroke-miterlimit="10"/>
<path d="M212.198 150.448L213.663 150.599L214.521 142.222L213.056 142.072L212.198 150.448Z" fill="#757575" stroke="#263238" stroke-width="0.596" stroke-miterlimit="10" stroke-linecap="round" stroke-linejoin="round"/>
<path d="M212.513 147.307L213.978 147.457L214.382 143.514L212.917 143.364L212.513 147.307Z" fill="#92E3A9" stroke="#263238" stroke-width="0.596" stroke-miterlimit="10"/>
<path d="M208.353 155.381L209.818 155.531L210.676 147.154L209.211 147.004L208.353 155.381Z" fill="#757575" stroke="#263238" stroke-width="0.596" stroke-miterlimit="10" stroke-linecap="round" stroke-linejoin="round"/>
<path d="M208.708 151.912L210.173 152.062L210.577 148.119L209.112 147.969L208.708 151.912Z" fill="#92E3A9" stroke="#263238" stroke-width="0.596" stroke-miterlimit="10"/>
<path d="M205.432 151.362L206.897 151.512L207.755 143.135L206.29 142.985L205.432 151.362Z" fill="#757575" stroke="#263238" stroke-width="0.596" stroke-miterlimit="10" stroke-linecap="round" stroke-linejoin="round"/>
<path d="M205.593 149.785L207.058 149.935L207.462 145.991L205.997 145.841L205.593 149.785Z" fill="#92E3A9" stroke="#263238" stroke-width="0.596" stroke-miterlimit="10"/>
<path d="M201.917 153.197L203.382 153.347L204.241 144.97L202.776 144.82L201.917 153.197Z" fill="#757575" stroke="#263238" stroke-width="0.596" stroke-miterlimit="10" stroke-linecap="round" stroke-linejoin="round"/>
<path d="M202.038 151.948L203.503 152.098L203.907 148.154L202.442 148.004L202.038 151.948Z" fill="#92E3A9" stroke="#263238" stroke-width="0.596" stroke-miterlimit="10"/>
<path d="M198.234 156.619L199.699 156.769L200.558 148.393L199.093 148.242L198.234 156.619Z" fill="#757575" stroke="#263238" stroke-width="0.596" stroke-miterlimit="10" stroke-linecap="round" stroke-linejoin="round"/>
<path d="M198.226 156.632L199.691 156.782L200.095 152.838L198.63 152.688L198.226 156.632Z" fill="#92E3A9" stroke="#263238" stroke-width="0.596" stroke-miterlimit="10"/>
<path d="M195.472 150.988L196.937 151.138L197.795 142.762L196.33 142.612L195.472 150.988Z" fill="#757575" stroke="#263238" stroke-width="0.596" stroke-miterlimit="10" stroke-linecap="round" stroke-linejoin="round"/>
<path d="M195.568 150.043L197.033 150.193L197.437 146.249L195.971 146.099L195.568 150.043Z" fill="#92E3A9" stroke="#263238" stroke-width="0.596" stroke-miterlimit="10"/>
<path d="M192.558 146.957L194.023 147.107L194.882 138.731L193.417 138.58L192.558 146.957Z" fill="#757575" stroke="#263238" stroke-width="0.596" stroke-miterlimit="10" stroke-linecap="round" stroke-linejoin="round"/>
<path d="M192.647 146.023L194.112 146.173L194.516 142.23L193.051 142.08L192.647 146.023Z" fill="#92E3A9" stroke="#263238" stroke-width="0.596" stroke-miterlimit="10"/>
<path d="M188.797 151.066L190.262 151.216L191.12 142.839L189.655 142.689L188.797 151.066Z" fill="#757575" stroke="#263238" stroke-width="0.596" stroke-miterlimit="10" stroke-linecap="round" stroke-linejoin="round"/>
<path d="M189.129 147.898L190.594 148.048L190.998 144.104L189.533 143.954L189.129 147.898Z" fill="#92E3A9" stroke="#263238" stroke-width="0.596" stroke-miterlimit="10"/>
<path d="M185.014 155.462L186.479 155.612L187.337 147.236L185.872 147.085L185.014 155.462Z" fill="#757575" stroke="#263238" stroke-width="0.596" stroke-miterlimit="10" stroke-linecap="round" stroke-linejoin="round"/>
<path d="M185.402 151.676L186.867 151.826L187.271 147.883L185.806 147.733L185.402 151.676Z" fill="#92E3A9" stroke="#263238" stroke-width="0.596" stroke-miterlimit="10"/>
<path d="M182.201 150.389L183.666 150.539L184.524 142.163L183.059 142.012L182.201 150.389Z" fill="#757575" stroke="#263238" stroke-width="0.596" stroke-miterlimit="10" stroke-linecap="round" stroke-linejoin="round"/>
<path d="M182.338 149.115L183.803 149.266L184.207 145.322L182.742 145.172L182.338 149.115Z" fill="#92E3A9" stroke="#263238" stroke-width="0.596" stroke-miterlimit="10"/>
<path d="M179.053 148.645L180.519 148.795L181.377 140.419L179.912 140.268L179.053 148.645Z" fill="#757575" stroke="#263238" stroke-width="0.596" stroke-miterlimit="10" stroke-linecap="round" stroke-linejoin="round"/>
<path d="M179.401 145.187L180.866 145.337L181.27 141.394L179.805 141.244L179.401 145.187Z" fill="#92E3A9" stroke="#263238" stroke-width="0.596" stroke-miterlimit="10"/>
<path d="M175.487 150.921L176.952 151.071L177.811 142.695L176.345 142.544L175.487 150.921Z" fill="#757575" stroke="#263238" stroke-width="0.596" stroke-miterlimit="10" stroke-linecap="round" stroke-linejoin="round"/>
<path d="M175.48 150.931L176.945 151.081L177.349 147.138L175.884 146.988L175.48 150.931Z" fill="#92E3A9" stroke="#263238" stroke-width="0.596" stroke-miterlimit="10"/>
<path d="M172.449 147.981L173.914 148.131L174.772 139.755L173.307 139.605L172.449 147.981Z" fill="#757575" stroke="#263238" stroke-width="0.596" stroke-miterlimit="10" stroke-linecap="round" stroke-linejoin="round"/>
<path d="M172.522 147.339L173.987 147.489L174.391 143.546L172.926 143.395L172.522 147.339Z" fill="#92E3A9" stroke="#263238" stroke-width="0.596" stroke-miterlimit="10"/>
<path d="M169.035 148.773L170.5 148.923L171.358 140.547L169.893 140.397L169.035 148.773Z" fill="#757575" stroke="#263238" stroke-width="0.596" stroke-miterlimit="10" stroke-linecap="round" stroke-linejoin="round"/>
<path d="M169.068 148.457L170.533 148.607L170.937 144.664L169.472 144.514L169.068 148.457Z" fill="#92E3A9" stroke="#263238" stroke-width="0.596" stroke-miterlimit="10"/>
<path d="M165.848 147.359L167.313 147.509L168.171 139.132L166.706 138.982L165.848 147.359Z" fill="#757575" stroke="#263238" stroke-width="0.596" stroke-miterlimit="10" stroke-linecap="round" stroke-linejoin="round"/>
<path d="M166.268 143.257L167.733 143.407L168.137 139.464L166.672 139.314L166.268 143.257Z" fill="#92E3A9" stroke="#263238" stroke-width="0.596" stroke-miterlimit="10"/>
</g>
<mask id="mask11_16002_7601" style="mask-type:luminance" maskUnits="userSpaceOnUse" x="151" y="46" width="110" height="144">
<path d="M260.804 56.5067L252.382 138.683L247.203 189.236L174.825 181.822L160.741 180.379L151.724 179.456L159.716 101.439L165.324 46.7263L260.804 56.5067Z" fill="white"/>
</mask>
<g mask="url(#mask11_16002_7601)">
<path d="M240.696 165.494L173.803 158.64C173.416 158.6 173.07 158.882 173.031 159.268C172.991 159.655 173.272 160.001 173.659 160.041L240.553 166.895C240.939 166.935 241.285 166.653 241.325 166.267C241.364 165.88 241.083 165.534 240.696 165.494Z" fill="#263238"/>
<path d="M240.179 170.531L162.395 162.56C162.009 162.521 161.663 162.802 161.623 163.189C161.584 163.576 161.865 163.921 162.252 163.961L240.036 171.932C240.423 171.971 240.768 171.69 240.808 171.303C240.848 170.917 240.567 170.571 240.179 170.531Z" fill="#263238"/>
<path d="M206.991 172.22L161.879 167.597C161.493 167.558 161.147 167.839 161.107 168.226C161.068 168.613 161.349 168.959 161.736 168.999L206.848 173.621C207.234 173.661 207.58 173.379 207.62 172.992C207.66 172.606 207.378 172.26 206.991 172.22Z" fill="#263238"/>
</g>
<mask id="mask12_16002_7601" style="mask-type:luminance" maskUnits="userSpaceOnUse" x="151" y="46" width="110" height="144">
<path d="M260.804 56.5067L252.382 138.683L247.203 189.236L174.825 181.822L160.741 180.379L151.724 179.456L159.716 101.439L165.324 46.7263L260.804 56.5067Z" fill="white"/>
</mask>
<g mask="url(#mask12_16002_7601)">
<path opacity="0.2" d="M248.073 127.24C245.766 127.055 244.968 130.733 244.968 130.733C244.968 130.733 241.32 125.953 241.898 114.712C241.898 114.712 240.116 109.73 235.342 112.739C230.574 115.749 225.622 126.358 226.802 137.914L217.522 107.107C214.315 107.787 207.801 112.096 209.518 132.902L199.392 122.198C199.392 122.198 196.65 121.316 195.1 123.742C193.551 126.173 194.29 143.541 195.571 150.037C196.859 156.539 193.587 169.586 193.587 169.586C193.587 169.586 190.095 154.806 183.776 151.065L159.716 101.439L151.724 179.456L160.741 180.379L175.222 173.331C175.141 176.591 175.062 179.587 174.824 181.822L247.203 189.236L252.382 138.683C250.624 132.384 248.943 127.306 248.073 127.24Z" fill="black" fill-opacity="0.7"/>
</g>
<path d="M260.804 56.5067L252.382 138.683L247.203 189.236L174.825 181.822L160.741 180.379L151.724 179.456L159.716 101.439L165.324 46.7263L260.804 56.5067Z" stroke="#263238" stroke-width="0.596" stroke-miterlimit="10" stroke-linecap="round" stroke-linejoin="round"/>
<path d="M259.612 268.063L217.296 275.262C217.296 275.262 209.929 236.135 205.536 229.972C201.144 223.804 201.949 221.271 199.815 217.117C198.528 214.608 192.073 209.929 187.007 205.31H187.001C186.56 204.911 186.131 204.511 185.719 204.112C185.541 203.951 185.374 203.778 185.207 203.617C184.533 202.95 183.908 202.3 183.353 201.662C183.151 201.436 182.96 201.209 182.781 200.983C181.726 199.678 180.981 198.456 180.731 197.353C180.713 197.294 180.701 197.234 180.695 197.169C180.677 197.091 180.665 197.02 180.659 196.948C180.546 196.024 180.427 194.969 180.308 193.825C180.284 193.599 180.26 193.36 180.23 193.122C180.218 193.026 180.206 192.937 180.195 192.836C180.093 191.882 179.98 190.869 179.849 189.826C179.718 188.735 179.575 187.603 179.408 186.464C179.354 186.071 179.301 185.678 179.235 185.278C179.235 185.272 179.235 185.266 179.229 185.266C179.163 184.825 179.092 184.384 179.02 183.937C178.955 183.556 178.889 183.175 178.824 182.793C178.812 182.728 178.794 182.668 178.788 182.614C178.705 182.167 178.621 181.732 178.538 181.291C178.52 181.243 178.514 181.196 178.508 181.142C178.424 180.755 178.347 180.373 178.258 179.986C178.073 179.122 177.864 178.275 177.638 177.453C177.191 175.814 176.666 174.282 176.058 172.923C173.007 166.111 176.976 168.573 174.586 151.044C174.586 151.044 176.344 146.979 181.357 150.228C181.744 150.478 182.114 150.752 182.477 151.044H182.483C183.49 151.855 184.384 152.814 185.147 153.893C186.143 155.294 186.917 156.897 187.448 158.637C188.241 161.23 188.497 164.132 188.127 167.16C188.127 167.16 191.894 180.069 193.879 183.008C195.869 185.946 204.07 169.067 203.54 167.1C203.433 166.707 203.284 165.747 203.117 164.43C203.081 164.138 203.045 163.828 203.003 163.501C202.968 163.173 202.926 162.833 202.89 162.481C202.866 162.315 202.849 162.136 202.825 161.963C202.819 161.891 202.813 161.82 202.801 161.754C202.729 161.081 202.646 160.366 202.568 159.627C202.551 159.418 202.527 159.221 202.503 159.019C202.467 158.667 202.431 158.303 202.396 157.946C202.384 157.892 202.384 157.833 202.378 157.767C202.354 157.564 202.33 157.356 202.312 157.141C202.264 156.724 202.223 156.301 202.181 155.878C202.139 155.514 202.109 155.151 202.074 154.787C202.002 154.102 201.937 153.416 201.871 152.755C201.823 152.26 201.776 151.771 201.734 151.294C201.722 151.187 201.71 151.08 201.704 150.979C201.454 148.356 201.257 146.199 201.186 145.281C201.186 145.281 195.22 136.448 194.606 132.288C193.992 128.122 194.046 123.747 196.543 121.965C202.455 117.758 200.727 124.54 203.373 127.347C206.019 130.166 210.078 134.755 212.379 136.192C214.5 137.539 216.396 142.772 216.664 143.535C216.36 142.39 213.326 131.138 213.261 128.873C213.183 126.483 211.359 113.878 214.459 109.354C217.552 104.836 221.676 108.341 222.058 109.235C222.439 110.129 222.552 122.341 223.643 125.744C224.74 129.141 229.299 143.308 229.299 143.308C229.299 143.308 229.49 129.529 230.521 123.36C231.546 117.197 234.228 112.37 236.85 112.096C239.473 111.821 241.898 114.712 241.898 114.712C241.898 114.712 240.861 124.546 241.159 126.817C241.451 129.082 240.73 137.288 241.976 141.699C241.976 141.699 241.833 129.952 243.657 128.45C245.486 126.948 247.048 126.227 248.073 127.24C249.092 128.253 249.319 135.208 250.362 139.392C251.411 143.582 251.273 149.262 251.959 155.788C252.644 162.315 255.344 171.374 254.808 176.553C254.271 181.72 252.62 194.576 251.291 202.115C249.962 209.661 246.571 219.983 246.571 219.983C246.571 219.983 248.115 225.496 247.817 230.413C247.513 235.33 259.612 268.063 259.612 268.063Z" fill="white"/>
<path opacity="0.4" d="M223.645 125.742C224.456 128.26 227.165 136.674 228.514 140.876C228.514 140.876 222.598 145.224 222.745 149.264C222.897 153.299 221.662 161.46 219.006 161.226C216.354 160.997 216.589 144.027 215.722 141.177C216.262 142.4 216.611 143.398 216.682 143.594C216.485 142.863 213.324 131.186 213.258 128.872C213.242 128.328 213.133 127.247 213.01 125.847L213.012 125.819C213.012 125.819 218.891 120.191 223.21 123.637L223.209 123.643C223.338 124.5 223.48 125.222 223.645 125.742Z" fill="#92E3A9"/>
<path opacity="0.4" d="M241.221 130.594C238.467 133.205 234.311 137.82 233.786 142.274C233.786 142.274 235.322 154.702 234.665 160.124L229.297 143.309C229.297 143.309 229.49 129.528 230.521 123.362C230.548 123.193 230.58 123.02 230.613 122.851C233.245 121.505 236.856 120.301 241.392 120.217C241.185 122.875 241.016 125.722 241.157 126.816C241.248 127.557 241.241 128.928 241.221 130.594Z" fill="#92E3A9"/>
<path opacity="0.4" d="M243.655 128.45L243.649 128.456C243.644 128.46 243.638 128.466 243.632 128.471C243.569 128.516 243.408 128.644 243.171 128.843C243.319 128.567 243.472 128.308 243.641 128.066L243.655 128.45Z" fill="#92E3A9"/>
<path opacity="0.4" d="M245.057 162.824C245.057 162.824 241.517 149.543 241.454 138.851C241.428 134.895 241.885 131.287 243.165 128.848L243.171 128.843C243.319 128.567 243.472 128.307 243.641 128.065L243.656 128.45C244.413 127.828 245.117 127.344 245.765 127.055C244.771 128.607 243.625 131.64 244.951 136.57C247.027 144.293 245.22 153.724 245.057 162.824Z" fill="#92E3A9"/>
<path opacity="0.4" d="M196.225 188.126C196.225 188.126 197.176 200.782 187.005 205.312H187C186.558 204.913 186.133 204.513 185.718 204.115C185.542 203.951 185.371 203.781 185.206 203.617C184.533 202.951 183.905 202.298 183.352 201.661C183.147 201.429 182.958 201.203 182.779 200.984C181.723 199.68 180.982 198.455 180.731 197.353C180.713 197.292 180.7 197.231 180.693 197.17C180.676 197.092 180.664 197.02 180.657 196.948C180.544 196.026 180.428 194.971 180.306 193.823C180.282 193.596 180.258 193.359 180.229 193.121C180.218 193.027 180.207 192.934 180.197 192.834C180.091 191.879 179.978 190.868 179.85 189.824C179.719 188.735 179.575 187.602 179.408 186.462C179.35 186.069 179.292 185.671 179.234 185.278C179.234 185.273 179.235 185.267 179.23 185.267C179.164 184.824 179.092 184.381 179.02 183.938C178.956 183.555 178.886 183.172 178.822 182.79C178.81 182.729 178.796 182.668 178.789 182.613C178.707 182.169 178.624 181.731 178.536 181.292C178.523 181.242 178.514 181.192 178.507 181.142C178.426 180.754 178.346 180.37 178.259 179.987C178.066 179.125 177.859 178.278 177.636 177.453C181.66 173.581 190.947 176.01 186.451 167.042C186.451 167.042 188.716 159.366 182.476 151.042L182.481 151.042C186.75 154.485 188.935 160.531 188.128 167.161C188.128 167.161 191.893 180.066 193.879 183.007C195.871 185.948 204.069 169.066 203.537 167.098C203.435 166.707 203.285 165.744 203.119 164.429C203.082 164.135 203.046 163.827 203.006 163.5C202.965 163.174 202.926 162.832 202.888 162.479C202.865 162.313 202.849 162.136 202.826 161.965C202.819 161.893 202.813 161.821 202.8 161.755C202.727 161.076 202.65 160.364 202.569 159.624C202.549 159.419 202.528 159.221 202.502 159.016C202.469 158.664 202.431 158.305 202.393 157.946C202.385 157.891 202.383 157.83 202.376 157.77C202.356 157.565 202.33 157.355 202.31 157.14C202.264 156.721 202.225 156.301 202.179 155.876C202.141 155.512 202.109 155.148 202.071 154.784C202.003 154.099 201.936 153.415 201.872 152.753C201.825 152.257 201.779 151.765 201.73 151.296C201.721 151.186 201.711 151.081 201.701 150.976C201.866 151.76 204.889 166.144 206.614 169.496C208.383 172.946 200.868 191.109 196.225 188.126Z" fill="#92E3A9"/>
<path opacity="0.4" d="M251.289 202.116C249.959 209.663 246.573 219.985 246.573 219.985C246.573 219.985 248.116 225.498 247.814 230.415C247.733 231.737 248.553 235.078 249.783 239.25C249.428 238.335 245.629 228.488 245.691 225.053C245.765 221.449 244.739 220.454 242.73 216.026C240.726 211.592 237.657 212.084 237.657 212.084C237.657 212.084 236.475 223.133 233.701 215.872C230.928 208.605 230.393 200.165 237.385 170.842C237.385 170.842 238.443 174.521 237.558 185.446C236.668 196.376 239.284 199.679 239.284 199.679C239.284 199.679 244.934 190.374 248.577 178.011C248.577 178.011 247.674 190.761 246.868 196.569C246.062 202.376 249.732 189.84 252.297 182.094C254.706 174.827 254.793 172.063 253.877 166.89C254.558 170.535 255.069 174.011 254.809 176.55C254.273 181.723 252.618 194.575 251.289 202.116Z" fill="#92E3A9"/>
<path opacity="0.4" d="M203.474 226.692C205.537 229.972 210.586 234.304 213.593 246.291C216.6 258.278 214.711 271.397 214.711 271.397L203.474 226.692Z" fill="#92E3A9"/>
<path opacity="0.2" d="M187.448 158.637C187.448 158.637 176.893 163.983 176.058 172.923C173.007 166.111 176.976 168.572 174.586 151.044C174.586 151.044 176.344 146.979 181.357 150.228C181.744 150.478 182.114 150.752 182.477 151.044H182.483C183.49 151.855 184.384 152.814 185.147 153.893L187.448 158.637Z" fill="black" fill-opacity="0.7"/>
<path d="M217.294 275.264C217.294 275.264 209.931 236.136 205.536 229.972C201.142 223.808 201.948 221.27 199.817 217.117C197.685 212.964 181.383 202.852 180.66 196.95C179.938 191.048 179.113 179.739 176.06 172.923C173.006 166.106 176.977 168.571 174.581 151.042C174.581 151.042 176.349 146.981 181.357 150.228C186.364 153.475 189.003 159.971 188.128 167.164C188.128 167.164 191.892 180.066 193.882 183.008C195.871 185.951 204.066 169.067 203.536 167.097C203.006 165.127 201.432 148.342 201.186 145.281C201.186 145.281 195.22 136.445 194.607 132.285C193.994 128.126 194.046 123.744 196.542 121.967C202.455 117.757 200.723 124.54 203.371 127.352C206.019 130.165 210.076 134.753 212.374 136.196C214.673 137.638 216.691 143.626 216.691 143.626C216.691 143.626 213.327 131.264 213.257 128.873C213.187 126.482 211.356 113.877 214.454 109.358C217.552 104.838 221.676 108.343 222.055 109.235C222.434 110.127 222.553 122.338 223.646 125.741C224.739 129.144 229.294 143.309 229.294 143.309C229.294 143.309 229.488 129.531 230.517 123.363C231.546 117.195 234.229 112.37 236.849 112.097C239.469 111.824 241.895 114.713 241.895 114.713C241.895 114.713 240.858 124.546 241.153 126.816C241.448 129.085 240.727 137.285 241.975 141.701C241.975 141.701 241.828 129.952 243.656 128.449C245.484 126.946 247.047 126.228 248.069 127.24C249.092 128.252 249.316 135.209 250.361 139.395C251.406 143.581 251.274 149.265 251.959 155.79C252.643 162.315 255.342 171.376 254.807 176.55C254.273 181.725 252.616 194.575 251.286 202.119C249.955 209.663 246.574 219.987 246.574 219.987C246.574 219.987 248.116 225.497 247.814 230.414C247.513 235.331 259.607 268.062 259.607 268.062" stroke="#263238" stroke-width="0.596" stroke-miterlimit="10" stroke-linecap="round" stroke-linejoin="round"/>
<path d="M229.295 143.309C230.527 146.205 233.574 158.433 234.663 160.127C235.753 161.821 236.987 162.33 236.987 162.33" stroke="#263238" stroke-width="0.596" stroke-miterlimit="10" stroke-linecap="round" stroke-linejoin="round"/>
<path d="M241.977 141.7C241.977 141.7 241.715 144.206 243.069 152.195C244.423 160.183 245.082 163.587 245.84 165.369" stroke="#263238" stroke-width="0.596" stroke-miterlimit="10" stroke-linecap="round" stroke-linejoin="round"/>
<path d="M216.692 143.626C218.346 148.494 219.28 156.254 220.221 158.59C221.163 160.925 222.001 161.41 222.001 161.41" stroke="#263238" stroke-width="0.596" stroke-miterlimit="10" stroke-linecap="round" stroke-linejoin="round"/>
<path d="M219.37 155.309C219.37 155.309 221.103 156.598 221.656 158.197" stroke="#263238" stroke-width="0.596" stroke-miterlimit="10" stroke-linecap="round" stroke-linejoin="round"/>
<path d="M193.882 183.008C193.882 183.008 194.788 189.464 198.833 188.953" stroke="#263238" stroke-width="0.596" stroke-miterlimit="10" stroke-linecap="round" stroke-linejoin="round"/>
<path d="M203.536 167.097C203.536 167.097 204.584 174.77 202.866 178.028" stroke="#263238" stroke-width="0.596" stroke-miterlimit="10" stroke-linecap="round" stroke-linejoin="round"/>
<path d="M235.859 167.164C235.859 167.164 238.577 168.828 236.759 173.706C234.941 178.584 231.78 198.278 231.78 198.278" stroke="#263238" stroke-width="0.596" stroke-miterlimit="10" stroke-linecap="round" stroke-linejoin="round"/>
<path d="M247.692 172.316C248.832 176.725 248.934 176.84 247.082 182.258C245.231 187.677 242.248 200.945 242.248 200.945" stroke="#263238" stroke-width="0.596" stroke-miterlimit="10" stroke-linecap="round" stroke-linejoin="round"/>
<path d="M246.576 219.986C246.576 219.986 244.799 216.398 246.267 213.451" stroke="#263238" stroke-width="0.596" stroke-miterlimit="10" stroke-linecap="round" stroke-linejoin="round"/>
<path d="M205.536 229.972C205.536 229.972 210.031 236.286 211.984 243.349" stroke="#263238" stroke-width="0.596" stroke-miterlimit="10" stroke-linecap="round" stroke-linejoin="round"/>
<path d="M238.603 119.336L239.816 118.136L240.368 117.98L240.331 118.575L239.213 119.997L238.603 119.336Z" fill="#757575" stroke="#263238" stroke-width="0.596" stroke-miterlimit="10" stroke-linecap="round" stroke-linejoin="round"/>
<path d="M239.583 120.002L237.608 124.488L184.444 195.372L178.523 191.597L186.561 181.512L234.312 121.615L238.524 118.939C238.525 118.939 239.427 119.17 239.583 120.002Z" fill="#92E3A9"/>
<mask id="mask13_16002_7601" style="mask-type:luminance" maskUnits="userSpaceOnUse" x="178" y="118" width="62" height="78">
<path d="M239.583 120.002L237.608 124.488L184.444 195.372L178.523 191.597L186.561 181.512L234.312 121.615L238.524 118.939C238.525 118.939 239.427 119.17 239.583 120.002Z" fill="white"/>
</mask>
<g mask="url(#mask13_16002_7601)">
<path opacity="0.3" d="M239.583 120.002L237.608 124.488L184.444 195.372L178.523 191.597L186.561 181.512C190.254 181.13 190.871 183.312 190.871 183.312L236.674 123.531C236.224 121.924 234.312 121.615 234.312 121.615L238.524 118.939C238.525 118.939 239.427 119.17 239.583 120.002Z" fill="black" fill-opacity="0.7"/>
</g>
<path d="M239.583 120.002L237.608 124.488L184.444 195.372L178.523 191.597L186.561 181.512L234.312 121.615L238.524 118.939C238.525 118.939 239.427 119.17 239.583 120.002Z" stroke="#263238" stroke-width="0.596" stroke-miterlimit="10" stroke-linecap="round" stroke-linejoin="round"/>
<path d="M201.784 174.384C201.784 174.384 195.852 186.162 190.142 194.493L186.062 195.547C186.062 195.547 176.706 204.845 170.998 209.486C170.998 209.486 169.531 208.633 168.208 207.143C168.208 207.143 176.314 191.577 185.282 181.723C185.282 181.723 186.585 182.121 188.224 183.286C189.196 183.976 190.289 184.932 191.295 186.233L201.291 173.657L201.784 174.384Z" fill="#92E3A9"/>
<mask id="mask14_16002_7601" style="mask-type:luminance" maskUnits="userSpaceOnUse" x="168" y="173" width="34" height="37">
<path d="M201.784 174.384C201.784 174.384 195.852 186.162 190.142 194.493L186.062 195.547C186.062 195.547 176.706 204.845 170.998 209.486C170.998 209.486 169.531 208.633 168.208 207.143C168.208 207.143 176.314 191.577 185.282 181.723C185.282 181.723 186.585 182.121 188.224 183.286C189.196 183.976 190.289 184.932 191.295 186.233L201.291 173.657L201.784 174.384Z" fill="white"/>
</mask>
<g mask="url(#mask14_16002_7601)">
<path opacity="0.3" d="M201.784 174.384C201.784 174.384 195.852 186.162 190.141 194.493L186.062 195.548C186.062 195.548 176.706 204.845 170.998 209.486L171.153 206.962C177.344 197.503 185.21 187.187 188.224 183.286C189.196 183.976 190.289 184.932 191.295 186.233L185.74 193.647L188.923 193.074L201.291 173.656L201.784 174.384Z" fill="black" fill-opacity="0.7"/>
</g>
<path d="M201.784 174.384C201.784 174.384 195.852 186.162 190.142 194.493L186.062 195.547C186.062 195.547 176.706 204.845 170.998 209.486C170.998 209.486 169.531 208.633 168.208 207.143C168.208 207.143 176.314 191.577 185.282 181.723C185.282 181.723 186.585 182.121 188.224 183.286C189.196 183.976 190.289 184.932 191.295 186.233L201.291 173.657L201.784 174.384Z" stroke="#263238" stroke-width="0.596" stroke-miterlimit="10" stroke-linecap="round" stroke-linejoin="round"/>
<path d="M222 161.409L205.393 177.512L202.74 180.086C204.556 175.415 203.678 168.193 203.562 167.314C203.562 167.309 203.562 167.303 203.562 167.303C203.555 167.253 203.55 167.226 203.55 167.226C203.547 167.182 203.545 167.132 203.536 167.099C203.434 166.708 203.285 165.745 203.118 164.43C203.081 164.137 203.046 163.828 203.005 163.501C202.964 163.175 202.925 162.833 202.887 162.48C202.864 162.314 202.848 162.137 202.825 161.966C202.818 161.895 202.812 161.822 202.799 161.756C202.725 161.083 202.643 160.365 202.568 159.625C202.548 159.421 202.527 159.222 202.501 159.018C202.468 158.665 202.43 158.306 202.392 157.947C202.384 157.892 202.382 157.832 202.375 157.771C202.355 157.566 202.329 157.357 202.309 157.141C202.264 156.722 202.224 156.302 202.178 155.877C202.14 155.513 202.108 155.149 202.07 154.785C202.002 154.101 201.935 153.416 201.871 152.754C201.819 152.258 201.772 151.772 201.73 151.298C201.72 151.187 201.71 151.083 201.7 150.978C201.449 148.358 201.253 146.201 201.183 145.281C201.183 145.281 195.221 136.448 194.604 132.286C193.993 128.125 194.042 123.745 196.543 121.969C202.455 117.757 200.723 124.539 203.369 127.35C206.015 130.167 210.077 134.755 212.375 136.195C214.672 137.641 216.69 143.628 216.69 143.628C218.344 148.495 219.277 156.252 220.219 158.592C221.163 160.925 222 161.409 222 161.409Z" fill="white"/>
<path d="M219.369 155.309C219.369 155.309 221.103 156.598 221.656 158.197" stroke="#263238" stroke-width="0.596" stroke-miterlimit="10" stroke-linecap="round" stroke-linejoin="round"/>
<path opacity="0.4" d="M203.37 127.35C206.006 130.161 210.053 134.725 212.354 136.182C212.03 136.02 207.796 133.956 205.429 136.251C202.967 138.644 201.184 145.281 201.184 145.281C201.184 145.281 195.222 136.448 194.606 132.286C193.995 128.124 194.044 123.745 196.544 121.968C202.456 117.757 200.724 124.539 203.37 127.35Z" fill="#92E3A9"/>
<path opacity="0.4" d="M205.393 177.512L202.74 180.086C204.556 175.415 203.678 168.193 203.562 167.314C203.562 167.309 203.562 167.304 203.562 167.304C203.562 167.221 203.55 167.155 203.537 167.099C203.435 166.709 203.285 165.746 203.119 164.43C203.082 164.137 203.046 163.828 203.006 163.502C202.965 163.176 202.926 162.834 202.888 162.48C202.865 162.315 202.848 162.138 202.826 161.966C202.819 161.895 202.813 161.823 202.8 161.757C202.727 161.078 202.65 160.366 202.569 159.625C202.549 159.421 202.528 159.222 202.502 159.018C202.469 158.665 202.431 158.306 202.392 157.948C202.385 157.892 202.383 157.832 202.376 157.771C202.355 157.567 202.33 157.357 202.31 157.142C202.264 156.722 202.224 156.303 202.179 155.878C202.141 155.514 202.109 155.149 202.071 154.785C202.003 154.101 201.935 153.417 201.871 152.755C201.825 152.258 201.779 151.767 201.73 151.298C201.721 151.188 201.711 151.083 201.7 150.978C201.866 151.762 204.888 166.146 206.613 169.498C207.266 170.766 206.659 174.035 205.393 177.512Z" fill="#92E3A9"/>
<path d="M222.001 161.41C222.001 161.41 221.163 160.925 220.221 158.589C219.279 156.254 218.346 148.494 216.692 143.626C216.692 143.626 214.672 137.638 212.375 136.195C210.077 134.752 206.019 130.164 203.371 127.352C200.723 124.539 202.456 117.756 196.542 121.967C194.047 123.744 193.995 128.125 194.607 132.285C195.22 136.445 201.187 145.281 201.187 145.281C201.433 148.342 203.006 165.127 203.537 167.097" stroke="#263238" stroke-width="0.596" stroke-miterlimit="10" stroke-linecap="round" stroke-linejoin="round"/>
<path d="M203.536 167.097C203.536 167.097 204.584 174.77 202.866 178.028" stroke="#263238" stroke-width="0.596" stroke-miterlimit="10" stroke-linecap="round" stroke-linejoin="round"/>
<path opacity="0.2" d="M101.601 176.485C101.601 176.485 105.374 194.002 97.1998 206.747C89.0262 219.491 82.7384 222.89 79.9092 226.692C77.08 230.495 66.0105 251.755 66.0105 251.755L53.0779 213.45L66.0105 166.062L101.601 176.485Z" fill="black" fill-opacity="0.7"/>
<path d="M177.828 163.089L97.6307 196.841L89.3642 200.322L73.7847 163.304L37.6075 77.343L126.072 40.1108L177.828 163.089Z" fill="white"/>
<mask id="mask15_16002_7601" style="mask-type:luminance" maskUnits="userSpaceOnUse" x="37" y="40" width="141" height="161">
<path d="M177.828 163.089L97.6307 196.841L89.3642 200.322L73.7847 163.304L37.6075 77.343L126.072 40.1108L177.828 163.089Z" fill="white"/>
</mask>
<g mask="url(#mask15_16002_7601)">
<path d="M103.215 56.1103L65.0282 72.1814C64.3112 72.483 63.9751 73.3091 64.2766 74.0255C64.5782 74.7425 65.4043 75.0786 66.1207 74.777L104.308 58.7059C105.025 58.4043 105.361 57.5782 105.06 56.8619C104.758 56.1455 103.932 55.8087 103.215 56.1103Z" fill="#263238"/>
</g>
<mask id="mask16_16002_7601" style="mask-type:luminance" maskUnits="userSpaceOnUse" x="37" y="40" width="141" height="161">
<path d="M177.828 163.089L97.6307 196.841L89.3642 200.322L73.7847 163.304L37.6075 77.343L126.072 40.1108L177.828 163.089Z" fill="white"/>
</mask>
<g mask="url(#mask16_16002_7601)">
<path d="M95.9137 65.4622L76.8202 73.4975C76.462 73.6483 76.2933 74.0613 76.4447 74.4195C76.5955 74.7777 77.0085 74.9464 77.3667 74.7956L96.4602 66.7603C96.8184 66.6095 96.9871 66.1965 96.8363 65.8383C96.6849 65.4801 96.2719 65.3114 95.9137 65.4622Z" fill="#263238"/>
</g>
<mask id="mask17_16002_7601" style="mask-type:luminance" maskUnits="userSpaceOnUse" x="37" y="40" width="141" height="161">
<path d="M177.828 163.089L97.6307 196.841L89.3642 200.322L73.7847 163.304L37.6075 77.343L126.072 40.1108L177.828 163.089Z" fill="white"/>
</mask>
<g mask="url(#mask17_16002_7601)">
<path d="M127.328 114.412C127.328 114.412 128.134 120.738 125.778 121.73C123.627 122.634 120.794 119.24 118.322 120.281C115.848 121.322 117.8 130.289 115.415 131.293C113.03 132.297 110.156 128.612 108.099 129.478C106.042 130.344 107.286 134.957 105.165 135.85C103.415 136.587 100.909 132.919 98.9064 132.115C98.4814 131.944 98.0809 131.901 97.7138 132.055C95.6153 132.939 96.6565 142.572 94.8458 143.335C94.2427 143.588 93.7224 143.63 93.239 143.597C92.5262 143.547 91.8944 143.335 91.1959 143.405C90.9522 143.43 90.6983 143.488 90.4324 143.6C88.8864 144.251 89.0974 149.32 87.6837 149.915C86.27 150.51 84.8753 149.773 83.3663 150.408C81.8572 151.043 81.8816 153.679 79.6323 154.626L80.5835 156.886L135.479 133.784" fill="#BFBFBF"/>
<path d="M127.328 114.412C127.328 114.412 128.134 120.738 125.778 121.73C123.627 122.634 120.794 119.24 118.322 120.281C115.848 121.322 117.8 130.289 115.415 131.293C113.03 132.297 110.156 128.612 108.099 129.478C106.042 130.344 107.286 134.957 105.165 135.85C103.415 136.587 100.909 132.919 98.9064 132.115C98.4814 131.944 98.0809 131.901 97.7138 132.055C95.6153 132.939 96.6565 142.572 94.8458 143.335C94.2427 143.588 93.7224 143.63 93.239 143.597C92.5262 143.547 91.8944 143.335 91.1959 143.405C90.9522 143.43 90.6983 143.488 90.4324 143.6C88.8864 144.251 89.0974 149.32 87.6837 149.915C86.27 150.51 84.8753 149.773 83.3663 150.408C81.8572 151.043 81.8816 153.679 79.6323 154.626L80.5835 156.886L135.479 133.784" stroke="#263238" stroke-width="0.596" stroke-miterlimit="10"/>
<path d="M69.47 130.477L80.5842 156.887L138.061 132.698" stroke="#263238" stroke-width="0.596" stroke-miterlimit="10" stroke-linecap="round" stroke-linejoin="round"/>
<path d="M131.745 124.907C131.745 124.907 131.474 124.574 131.068 124.179C130.357 123.493 129.23 122.622 128.374 122.982C127.536 123.334 127.461 124.726 127.478 126.214C127.498 128.023 127.656 129.971 126.746 130.354C125.972 130.68 125.277 130.19 124.565 129.656C123.751 129.047 122.913 128.382 121.91 128.803C120.214 129.517 120.731 131.724 120.134 133.613C119.831 134.579 119.234 135.462 117.904 136.022C116.441 136.638 114.955 136.033 113.558 135.078C111.196 133.467 109.076 130.86 107.703 131.438C105.517 132.359 107.927 138.274 105.577 139.263C104.264 139.816 101.547 135.674 98.9075 132.115C96.8209 129.297 94.7808 126.844 93.5274 127.371C90.6934 128.564 95.3637 142.706 93.3033 143.574C93.283 143.582 93.2616 143.591 93.2407 143.597C92.3837 143.936 91.7513 143.721 91.1976 143.405C90.4544 142.983 89.8507 142.387 89.03 142.733C87.5126 143.371 88.4024 148.916 86.7294 149.62C85.0547 150.325 84.0534 149.305 82.1706 150.097C80.5775 150.768 79.634 154.625 79.634 154.625L80.5853 156.886L135.481 133.783" fill="#757575"/>
<path d="M131.745 124.907C131.745 124.907 131.474 124.574 131.068 124.179C130.357 123.493 129.23 122.622 128.374 122.982C127.536 123.334 127.461 124.726 127.478 126.214C127.498 128.023 127.656 129.971 126.746 130.354C125.972 130.68 125.277 130.19 124.565 129.656C123.751 129.047 122.913 128.382 121.91 128.803C120.214 129.517 120.731 131.724 120.134 133.613C119.831 134.579 119.234 135.462 117.904 136.022C116.441 136.638 114.955 136.033 113.558 135.078C111.196 133.467 109.076 130.86 107.703 131.438C105.517 132.359 107.927 138.274 105.577 139.263C104.264 139.816 101.547 135.674 98.9075 132.115C96.8209 129.297 94.7808 126.844 93.5274 127.371C90.6934 128.564 95.3637 142.706 93.3033 143.574C93.283 143.582 93.2616 143.591 93.2407 143.597C92.3837 143.936 91.7513 143.721 91.1976 143.405C90.4544 142.983 89.8507 142.387 89.03 142.733C87.5126 143.371 88.4024 148.916 86.7294 149.62C85.0547 150.325 84.0534 149.305 82.1706 150.097C80.5775 150.768 79.634 154.625 79.634 154.625L80.5853 156.886L135.481 133.783" stroke="#263238" stroke-width="0.596" stroke-miterlimit="10" stroke-linecap="round" stroke-linejoin="round"/>
<path d="M120.127 143.762L101.033 151.797C100.675 151.948 100.506 152.361 100.657 152.719C100.808 153.077 101.221 153.246 101.579 153.095L120.673 145.06C121.031 144.909 121.2 144.496 121.049 144.138C120.898 143.779 120.485 143.611 120.127 143.762Z" fill="#263238"/>
<path d="M136.317 114.65L134.473 115.427C134.282 115.507 134.064 115.417 133.984 115.228L133.208 113.383C133.128 113.193 133.217 112.974 133.407 112.894L135.251 112.118C135.442 112.038 135.66 112.127 135.74 112.317L136.517 114.162C136.596 114.352 136.507 114.57 136.317 114.65Z" fill="#BFBFBF" stroke="#263238" stroke-width="0.596" stroke-miterlimit="10"/>
<path d="M145.227 109.007L137.596 112.218C137.435 112.286 137.25 112.211 137.183 112.05C137.115 111.889 137.19 111.704 137.351 111.636L144.982 108.425C145.143 108.357 145.327 108.433 145.395 108.593C145.463 108.754 145.388 108.939 145.227 109.007Z" fill="#263238"/>
<path d="M143.432 111.253L138.129 113.485C137.968 113.553 137.783 113.477 137.715 113.316C137.648 113.155 137.723 112.971 137.884 112.903L143.187 110.671C143.348 110.603 143.532 110.679 143.6 110.84C143.668 111.001 143.592 111.186 143.432 111.253Z" fill="#263238"/>
<path d="M138.704 120.323L136.859 121.1C136.669 121.18 136.45 121.09 136.371 120.901L135.594 119.056C135.514 118.866 135.603 118.647 135.793 118.567L137.638 117.791C137.828 117.711 138.047 117.8 138.126 117.99L138.903 119.834C138.983 120.025 138.894 120.243 138.704 120.323Z" fill="#757575" stroke="#263238" stroke-width="0.596" stroke-miterlimit="10" stroke-linecap="round" stroke-linejoin="round"/>
<path d="M147.614 114.68L139.983 117.891C139.822 117.959 139.637 117.883 139.569 117.723C139.501 117.562 139.577 117.377 139.738 117.309L147.369 114.098C147.53 114.03 147.714 114.105 147.782 114.266C147.85 114.427 147.774 114.612 147.614 114.68Z" fill="#263238"/>
<path d="M145.818 116.926L140.516 119.157C140.355 119.225 140.171 119.15 140.103 118.989C140.035 118.828 140.11 118.643 140.271 118.575L145.573 116.344C145.734 116.276 145.919 116.351 145.987 116.512C146.055 116.674 145.979 116.858 145.818 116.926Z" fill="#263238"/>
</g>
<mask id="mask18_16002_7601" style="mask-type:luminance" maskUnits="userSpaceOnUse" x="37" y="40" width="141" height="161">
<path d="M177.828 163.089L97.6307 196.841L89.3642 200.322L73.7847 163.304L37.6075 77.343L126.072 40.1108L177.828 163.089Z" fill="white"/>
</mask>
<g mask="url(#mask18_16002_7601)">
<path d="M157.648 138.067L95.6699 164.15C95.3118 164.301 95.1431 164.714 95.2939 165.072C95.4447 165.431 95.8577 165.599 96.2159 165.448L158.195 139.365C158.553 139.214 158.721 138.801 158.571 138.443C158.42 138.084 158.007 137.916 157.648 138.067Z" fill="#263238"/>
<path d="M159.612 142.734L87.5435 173.064C87.1853 173.215 87.0166 173.628 87.1674 173.986C87.3182 174.344 87.7312 174.513 88.0894 174.362L160.158 144.032C160.517 143.881 160.685 143.468 160.534 143.11C160.384 142.752 159.971 142.583 159.612 142.734Z" fill="#263238"/>
<path d="M161.576 147.401L89.5073 177.731C89.1491 177.882 88.9805 178.295 89.1319 178.653C89.2827 179.011 89.6957 179.18 90.0539 179.029L162.123 148.699C162.481 148.548 162.65 148.135 162.499 147.777C162.347 147.418 161.935 147.25 161.576 147.401Z" fill="#263238"/>
<path d="M163.541 152.068L91.4711 182.398C91.1129 182.549 90.9442 182.962 91.0956 183.32C91.2464 183.678 91.6594 183.847 92.0176 183.696L164.087 153.366C164.445 153.215 164.614 152.802 164.463 152.444C164.312 152.085 163.899 151.917 163.541 152.068Z" fill="#263238"/>
<path d="M135.232 169.474L93.435 187.065C93.0768 187.216 92.9081 187.629 93.0589 187.987C93.2097 188.345 93.6227 188.514 93.9809 188.363L135.778 170.773C136.137 170.622 136.305 170.209 136.154 169.851C136.004 169.492 135.591 169.324 135.232 169.474Z" fill="#263238"/>
</g>
<mask id="mask19_16002_7601" style="mask-type:luminance" maskUnits="userSpaceOnUse" x="37" y="40" width="141" height="161">
<path d="M177.828 163.089L97.6307 196.841L89.3642 200.322L73.7847 163.304L37.6075 77.343L126.072 40.1108L177.828 163.089Z" fill="white"/>
</mask>
<g mask="url(#mask19_16002_7601)">
<path d="M112.212 78.4956C112.212 78.4956 113.018 84.8215 110.662 85.8133C108.512 86.718 105.679 83.3238 103.207 84.3644C100.733 85.4056 102.685 94.373 100.3 95.3767C97.9144 96.3804 95.0405 92.6959 92.9837 93.5619C90.9269 94.4273 92.1702 99.0409 90.0496 99.9337C88.2992 100.67 85.7936 97.0032 83.791 96.1986C83.3661 96.0275 82.9656 95.9846 82.599 96.139C80.4999 97.0223 81.5417 106.656 79.7311 107.418C79.1279 107.672 78.6076 107.714 78.1243 107.681C77.4114 107.631 76.7797 107.418 76.0812 107.489C75.8374 107.514 75.5835 107.571 75.3177 107.684C73.7717 108.334 73.9827 113.404 72.5689 113.999C71.1552 114.594 69.7606 113.856 68.2515 114.492C66.7424 115.127 66.7669 117.762 64.5176 118.71L65.4688 120.971L120.365 97.868" fill="#BFBFBF"/>
<path d="M112.212 78.4956C112.212 78.4956 113.018 84.8215 110.662 85.8133C108.512 86.718 105.679 83.3238 103.207 84.3644C100.733 85.4056 102.685 94.373 100.3 95.3767C97.9144 96.3804 95.0405 92.6959 92.9837 93.5619C90.9269 94.4273 92.1702 99.0409 90.0496 99.9337C88.2992 100.67 85.7936 97.0032 83.791 96.1986C83.3661 96.0275 82.9656 95.9846 82.599 96.139C80.4999 97.0223 81.5417 106.656 79.7311 107.418C79.1279 107.672 78.6076 107.714 78.1243 107.681C77.4114 107.631 76.7797 107.418 76.0812 107.489C75.8374 107.514 75.5835 107.571 75.3177 107.684C73.7717 108.334 73.9827 113.404 72.5689 113.999C71.1552 114.594 69.7606 113.856 68.2515 114.492C66.7424 115.127 66.7669 117.762 64.5176 118.71L65.4688 120.971L120.365 97.868" stroke="#263238" stroke-width="0.596" stroke-miterlimit="10"/>
<path d="M115.76 86.9268C115.76 86.9268 116.263 89.9932 115.049 90.5039C114.043 90.9277 113.423 90.3377 112.362 90.2983C111.939 90.2816 111.445 90.3538 110.827 90.6136C109.857 91.0219 109.621 92.3313 109.449 93.7402C109.238 95.4722 109.125 97.3538 107.857 97.8878C106.969 98.2615 106.01 98.0433 105.018 97.6971C103.442 97.1476 101.783 96.2786 100.183 96.9521C99.4079 97.2787 98.8638 98.122 98.4418 99.1626C97.4471 101.625 97.1336 105.19 96.0566 105.644C94.5237 106.288 91.7177 103.655 90.3577 104.227C88.9976 104.799 89.5543 107.163 88.4505 107.627C87.3467 108.091 86.7167 106.721 84.7737 107.539C82.829 108.357 83.7766 111.227 81.0374 112.38C78.2988 113.532 77.0949 111.412 74.4433 112.528C71.7935 113.643 72.2738 115.652 70.4066 116.438C68.5393 117.224 67.749 115.858 66.411 116.422C65.1147 116.967 64.7583 119.1 64.7368 119.233L65.4687 120.971L120.364 97.8687" fill="#92E3A9"/>
<path d="M115.76 86.9268C115.76 86.9268 116.263 89.9932 115.049 90.5039C114.043 90.9277 113.423 90.3377 112.362 90.2983C111.939 90.2816 111.445 90.3538 110.827 90.6136C109.857 91.0219 109.621 92.3313 109.449 93.7402C109.238 95.4722 109.125 97.3538 107.857 97.8878C106.969 98.2615 106.01 98.0433 105.018 97.6971C103.442 97.1476 101.783 96.2786 100.183 96.9521C99.4079 97.2787 98.8638 98.122 98.4418 99.1626C97.4471 101.625 97.1336 105.19 96.0566 105.644C94.5237 106.288 91.7177 103.655 90.3577 104.227C88.9976 104.799 89.5543 107.163 88.4505 107.627C87.3467 108.091 86.7167 106.721 84.7737 107.539C82.829 108.357 83.7766 111.227 81.0374 112.38C78.2988 113.532 77.0949 111.412 74.4433 112.528C71.7935 113.643 72.2738 115.652 70.4066 116.438C68.5393 117.224 67.749 115.858 66.411 116.422C65.1147 116.967 64.7583 119.1 64.7368 119.233L65.4687 120.971L120.364 97.8687" stroke="#263238" stroke-width="0.596" stroke-miterlimit="10"/>
<path d="M54.3546 94.5615L65.4688 120.971L122.946 96.7816" stroke="#263238" stroke-width="0.596" stroke-miterlimit="10" stroke-linecap="round" stroke-linejoin="round"/>
<path d="M104.839 107.436L85.7453 115.471C85.3871 115.622 85.2184 116.035 85.3692 116.393C85.52 116.751 85.933 116.92 86.2912 116.769L105.385 108.734C105.743 108.583 105.912 108.17 105.761 107.812C105.61 107.453 105.197 107.285 104.839 107.436Z" fill="#263238"/>
<path d="M120.237 76.4418L118.392 77.2184C118.202 77.2982 117.984 77.2088 117.904 77.0193L117.127 75.1747C117.047 74.9846 117.136 74.7658 117.326 74.686L119.171 73.9094C119.361 73.8295 119.58 73.9189 119.66 74.1084L120.436 75.9531C120.516 76.1432 120.427 76.3619 120.237 76.4418Z" fill="#BFBFBF" stroke="#263238" stroke-width="0.596" stroke-miterlimit="10"/>
<path d="M129.147 70.7989L121.516 74.0101C121.355 74.0781 121.17 74.0024 121.102 73.8415C121.035 73.6805 121.11 73.4958 121.271 73.4278L128.902 70.2166C129.063 70.1486 129.247 70.2243 129.315 70.3853C129.383 70.5462 129.308 70.7309 129.147 70.7989Z" fill="#263238"/>
<path d="M127.352 73.0447L122.049 75.2762C121.888 75.3441 121.703 75.2684 121.635 75.1075C121.567 74.9466 121.643 74.7618 121.804 74.6939L127.107 72.4624C127.267 72.3945 127.452 72.4702 127.52 72.6311C127.588 72.792 127.512 72.9774 127.352 73.0447Z" fill="#263238"/>
<path d="M122.624 82.1146L120.78 82.8912C120.59 82.9711 120.371 82.8817 120.291 82.6922L119.514 80.8475C119.435 80.6574 119.524 80.4387 119.714 80.3588L121.558 79.5822C121.748 79.5024 121.967 79.5918 122.047 79.7813L122.823 81.6259C122.903 81.816 122.814 82.0348 122.624 82.1146Z" fill="#92E3A9" stroke="#263238" stroke-width="0.596" stroke-miterlimit="10"/>
<path d="M131.534 76.4717L123.903 79.683C123.742 79.7509 123.557 79.6752 123.489 79.5143C123.421 79.3534 123.497 79.1686 123.658 79.1007L131.289 75.8894C131.449 75.8215 131.634 75.8972 131.702 76.0581C131.77 76.219 131.694 76.4038 131.534 76.4717Z" fill="#263238"/>
<path d="M129.738 78.7173L124.436 80.9488C124.275 81.0167 124.091 80.941 124.023 80.7801C123.955 80.6192 124.03 80.4344 124.191 80.3665L129.493 78.135C129.654 78.0671 129.839 78.1428 129.907 78.3037C129.975 78.4652 129.899 78.65 129.738 78.7173Z" fill="#263238"/>
</g>
<mask id="mask20_16002_7601" style="mask-type:luminance" maskUnits="userSpaceOnUse" x="37" y="40" width="141" height="161">
<path d="M177.828 163.089L97.6307 196.841L89.3642 200.322L73.7847 163.304L37.6075 77.343L126.072 40.1108L177.828 163.089Z" fill="white"/>
</mask>
<g mask="url(#mask20_16002_7601)">
<path opacity="0.2" d="M97.6306 196.841L89.3641 200.322L73.7847 163.304C74.7621 162.374 75.9064 160.783 76.3892 158.196C77.3189 153.238 76.6634 137.295 89.078 135.65C101.487 134.005 91.021 161.921 91.5931 167.244C92.1176 172.089 99.1921 186.173 97.6306 196.841Z" fill="black" fill-opacity="0.7"/>
</g>
<path d="M177.828 163.089L97.6307 196.841L89.3642 200.322L73.7847 163.304L37.6075 77.343L126.072 40.1108L177.828 163.089Z" stroke="#263238" stroke-width="0.596" stroke-miterlimit="10" stroke-linecap="round" stroke-linejoin="round"/>
<path d="M92.6368 169.262C94.0279 164.503 99.464 149.228 98.7506 142.475C98.6868 141.87 98.5545 141.322 98.3697 140.831C96.4619 135.787 88.6645 136.276 85.6713 140.454C82.3832 145.05 79.697 153.319 79.4676 158.353C79.3418 161.135 78.1498 163.689 77.1092 165.419C77.1044 165.431 77.1044 165.436 77.0991 165.441C76.2587 166.835 75.5215 167.682 75.5215 167.682L57.7327 125.474C57.7327 125.474 54.8599 127.796 53.0779 130.669C52.3585 131.822 51.8191 133.071 51.7107 134.287C51.3465 138.444 46.6375 155.525 44.6797 162.733C44.6421 162.888 44.5992 163.032 44.5611 163.177C42.6789 170.103 47.6483 195.827 46.2275 203.299C44.8006 210.765 43.9227 210.604 43.7159 215.911C43.5645 219.785 38.0217 231.564 31.8126 243.656C28.2521 250.585 24.4711 257.612 21.354 263.306L66.8407 261.416C67.6292 255.89 68.4362 250.056 69.1747 244.41C69.478 242.086 69.9709 239.698 70.5335 237.429C70.5335 237.429 70.5335 237.429 70.5335 237.423C71.5378 233.371 72.7608 229.704 73.504 227.559C74.6686 224.207 75.8779 217.966 75.8779 217.966C81.168 212.366 88.1054 203.564 90.1145 197.602C90.1193 197.591 90.1241 197.574 90.1294 197.563C90.6366 196.058 90.8226 194.735 90.5824 193.693C90.3827 192.835 90.2707 191.723 90.2224 190.437C90.2278 190.432 90.2278 190.432 90.2218 190.426C89.9935 183.972 91.4704 173.227 92.6368 169.262Z" fill="white"/>
<path opacity="0.4" d="M77.0996 165.441C75.6888 168.272 73.9896 171.022 72.9049 174.195C71.8202 177.369 70.6556 177.817 67.4718 180.3C64.288 182.782 61.9647 178.693 61.9647 178.693C61.9647 178.693 66.1767 174.316 64.7773 171.881C63.3719 169.441 58.1349 163.38 58.4454 160.036C58.7505 156.693 55.2669 149.194 55.2669 149.194C55.2669 149.194 63.2092 144.531 61.6679 139.083C60.8264 136.1 56.6675 132.925 53.079 130.669C54.8604 127.796 57.7337 125.474 57.7337 125.474L75.5226 167.682C75.5226 167.682 76.2592 166.835 77.0996 165.441Z" fill="#92E3A9"/>
<path opacity="0.4" d="M48.2509 191.331C48.3588 191.688 50.9436 200.232 48.7629 203.79C46.5308 207.428 44.3399 212.066 45.4062 216.897C46.2567 220.758 39.1059 234.707 31.8126 243.655C38.0218 231.564 43.5646 219.784 43.7159 215.91C43.9227 210.604 44.8007 210.765 46.2275 203.298C47.6483 195.827 42.6795 170.103 44.5611 163.176C44.5986 163.032 44.6421 162.888 44.6797 162.733C46.0683 170.581 49.3034 186.214 50.1915 191.239C51.3233 197.641 48.3713 191.584 48.2509 191.331Z" fill="#92E3A9"/>
<path opacity="0.4" d="M64.6301 242.868C69.9143 220.11 87.7067 202.656 90.1157 197.603C88.106 203.565 81.1685 212.367 75.879 217.967C75.879 217.967 74.6697 224.208 73.5052 227.56C72.7614 229.706 71.5384 233.372 70.5347 237.424C70.5347 237.43 70.5347 237.43 70.5347 237.43C65.3692 243.517 64.6301 242.868 64.6301 242.868Z" fill="#92E3A9"/>
<path opacity="0.4" d="M92.6367 169.262C91.4703 173.228 89.9934 183.972 90.2229 190.427C89.2878 186.374 87.4849 181.227 87.1869 174.057C86.6821 161.899 93.5688 166.259 91.167 160.272C88.7657 154.291 81.9182 161.96 85.2922 149.28C87.7566 140.023 94.7674 140.11 98.369 140.831C98.5538 141.322 98.6861 141.87 98.7499 142.475C99.4639 149.228 94.0278 164.503 92.6367 169.262Z" fill="#92E3A9"/>
<path d="M28.2716 250.753C33.9771 240.331 39.5223 229.61 43.5203 218.045C43.9989 216.381 43.3611 214.217 43.8403 212.553C49.2431 197.536 43.115 181.903 44.1198 166.521C44.9638 160.459 46.9014 154.352 48.8396 148.245C49.7514 143.825 50.0941 138.88 51.5532 134.436C53.0575 131.087 54.5391 127.19 57.7331 125.474C63.8123 139.406 69.8718 153.399 75.5219 167.682C78.074 166.207 78.4846 162.902 78.9179 160.145C80.2863 153.514 81.6768 147.43 84.1847 141.847C86.7374 137.358 93.2326 135.445 97.2199 139.115C98.3594 140.163 98.9739 141.781 99.0424 143.422C98.2664 151.124 95.8503 158.895 93.4108 166.118C92.4531 169.445 91.4732 172.226 91.0626 175.529C91.1079 176.623 91.1305 177.17 91.1764 178.264C89.7627 183.801 91.0608 188.678 90.7413 194.17C89.5094 204.082 81.5784 210.986 75.8574 218.346C74.4437 223.883 73.03 229.421 71.0698 234.98C68.6756 243.297 67.9229 251.547 67.1058 259.565" stroke="#263238" stroke-width="0.596" stroke-miterlimit="10" stroke-linecap="round" stroke-linejoin="round"/>
<path d="M75.5229 167.682C75.5229 167.682 73.6491 171.274 72.9035 174.195C72.1579 177.116 68.3834 176.695 66.4363 178.51" stroke="#263238" stroke-width="0.596" stroke-miterlimit="10" stroke-linecap="round" stroke-linejoin="round"/>
<path d="M61.2941 162.541C61.2941 162.541 66.4262 164.35 69.4134 166.683C72.3999 169.015 74.6105 169.584 74.6105 169.584" stroke="#263238" stroke-width="0.596" stroke-miterlimit="10" stroke-linecap="round" stroke-linejoin="round"/>
<path d="M58.0203 149.817C58.0203 149.817 62.1613 150.978 65.2325 149.517C65.2325 149.517 65.4607 146.98 66.0108 145.115" stroke="#263238" stroke-width="0.596" stroke-miterlimit="10" stroke-linecap="round" stroke-linejoin="round"/>
<path d="M66.2188 150.118C66.2188 150.118 66.2623 150.696 68.3733 150.72" stroke="#263238" stroke-width="0.596" stroke-miterlimit="10" stroke-linecap="round" stroke-linejoin="round"/>
<path d="M75.8777 217.969C75.8777 217.969 71.8398 221.633 69.3688 228.238" stroke="#263238" stroke-width="0.596" stroke-miterlimit="10" stroke-linecap="round" stroke-linejoin="round"/>
<path d="M44.3152 164.451C44.1298 168.02 48.3215 180.707 49.5951 187.012C50.8682 193.316 51.3426 197.776 51.3426 197.776" stroke="#263238" stroke-width="0.596" stroke-miterlimit="10" stroke-linecap="round" stroke-linejoin="round"/>
</svg>
