<svg width="323" height="323" viewBox="0 0 323 323" fill="none" xmlns="http://www.w3.org/2000/svg">
<path d="M39.6831 133.31C39.6831 133.31 13.5356 172.746 32.1275 232.229C50.7194 291.711 104.763 306.887 136.83 290.349C168.896 273.811 173.576 252.335 199.469 236.732C225.362 221.129 278.826 221.683 299.407 178.763C319.989 135.844 277.311 75.6837 228.966 41.0413C180.62 6.3995 75.6763 47.3882 39.6831 133.31Z" fill="#92E3A9"/>
<path opacity="0.7" d="M39.6831 133.31C39.6831 133.31 13.5356 172.746 32.1275 232.229C50.7194 291.711 104.763 306.887 136.83 290.349C168.896 273.811 173.576 252.335 199.469 236.732C225.362 221.129 278.826 221.683 299.407 178.763C319.989 135.844 277.311 75.6837 228.966 41.0413C180.62 6.3995 75.6763 47.3882 39.6831 133.31Z" fill="white"/>
<path d="M205.935 218.41C208.243 219.417 213.885 219.29 213.889 219.29C213.948 219.289 212.676 215.596 212.569 215.372C211.332 212.782 207.416 208.505 204.23 208.935C201.936 209.245 200.659 211.543 201.177 213.704C201.706 215.912 203.97 217.55 205.935 218.41Z" fill="#263238"/>
<path d="M207.883 234.755C210.276 235.104 215.312 233.644 215.712 233.526C216.507 236.345 217.552 239.173 218.767 241.977C219.459 243.581 220.206 245.175 220.976 246.764C220.517 246.091 220.101 245.492 220.034 245.415C218.155 243.243 213.25 240.153 210.291 241.41C208.159 242.315 207.535 244.868 208.605 246.815C209.697 248.804 212.316 249.787 214.437 250.096C216.59 250.411 220.909 249.251 222.048 248.929C222.349 249.536 222.643 250.145 222.947 250.749C224.406 253.653 225.873 256.545 227.226 259.425C227.703 260.439 228.136 261.456 228.573 262.472C228.165 261.875 227.815 261.375 227.754 261.304C225.875 259.134 220.97 256.043 218.011 257.3C215.879 258.205 215.254 260.757 216.325 262.705C217.418 264.694 220.035 265.678 222.157 265.987C224.212 266.286 228.207 265.252 229.562 264.876C229.978 265.93 230.396 266.984 230.752 268.024C230.978 268.74 231.247 269.413 231.434 270.144C231.635 270.865 231.834 271.577 232.031 272.284C232.36 273.657 232.709 275.073 232.997 276.42C233.204 277.356 233.384 278.252 233.569 279.155C233.106 278.138 232.157 276.169 232.059 276.014C230.531 273.583 226.15 269.786 223.035 270.579C220.79 271.151 219.787 273.579 220.55 275.666C221.329 277.798 223.767 279.167 225.818 279.794C228.075 280.483 233.073 279.853 233.698 279.77C233.997 281.264 234.274 282.719 234.514 284.097C234.643 284.827 234.754 285.511 234.867 286.2H236.855C236.709 285.407 236.555 284.595 236.386 283.747C236.088 282.23 235.74 280.614 235.365 278.958C235.741 278.808 237.873 277.946 239.762 276.89C241.408 278.673 245.624 280.758 246.17 281.023C245.596 282.434 245.024 283.801 244.464 285.082C244.295 285.47 244.132 285.83 243.968 286.199H246.062C246.114 286.073 246.166 285.953 246.219 285.823C246.807 284.392 247.408 282.852 248.01 281.264C248.615 281.391 253.563 282.396 255.869 281.876C257.96 281.403 260.494 280.219 261.43 278.151C262.346 276.128 261.526 273.631 259.329 272.894C256.282 271.87 251.63 275.33 249.926 277.641C249.826 277.777 248.9 279.378 248.333 280.397C248.575 279.747 248.817 279.119 249.059 278.447C249.546 277.121 249.992 275.784 250.477 274.346C250.687 273.644 250.899 272.935 251.114 272.219C251.341 271.512 251.492 270.738 251.686 269.992C252.101 268.251 252.435 266.468 252.733 264.664C253.895 265.087 258.043 266.53 260.192 266.379C262.331 266.229 265.014 265.443 266.252 263.541C267.465 261.679 267.032 259.087 264.974 258.025C262.116 256.551 256.994 259.268 254.959 261.293C254.831 261.419 253.536 263.037 252.84 263.939C253.011 262.853 253.186 261.77 253.323 260.665C253.719 257.478 254.019 254.239 254.335 251.009C254.43 250.019 254.538 249.035 254.642 248.048C255.054 248.204 259.946 250.025 262.353 249.856C264.492 249.706 267.176 248.92 268.414 247.018C269.626 245.157 269.194 242.565 267.135 241.503C264.278 240.029 259.155 242.745 257.121 244.771C256.968 244.923 255.105 247.253 254.66 247.869C254.89 245.697 255.138 243.535 255.47 241.413C255.924 238.486 256.531 235.639 257.323 232.923C257.514 232.996 262.613 234.92 265.078 234.747C267.217 234.596 269.9 233.811 271.138 231.908C272.351 230.046 271.919 227.455 269.86 226.393C267.003 224.919 261.881 227.635 259.845 229.661C259.685 229.82 257.683 232.327 257.352 232.808C257.4 232.647 257.432 232.474 257.481 232.314C258.363 229.426 259.581 226.74 260.844 224.28C261.575 222.849 262.354 221.522 263.141 220.249C264.054 220.705 268.249 222.741 270.484 222.831C272.627 222.916 275.38 222.43 276.819 220.676C278.229 218.958 278.084 216.334 276.155 215.053C273.476 213.275 268.087 215.413 265.842 217.202C265.72 217.299 264.589 218.426 263.776 219.258C264.14 218.688 264.505 218.094 264.864 217.556C266.209 215.531 267.565 213.759 268.779 212.199C269.476 211.318 270.124 210.535 270.739 209.808C271.867 209.788 276.416 209.651 278.405 208.717C280.346 207.805 282.565 206.105 283.035 203.885C283.494 201.71 282.157 199.449 279.854 199.201C276.658 198.856 272.859 203.237 271.691 205.859C271.591 206.086 270.419 209.812 270.479 209.811C270.479 209.811 270.534 209.81 270.547 209.81C269.941 210.497 269.302 211.241 268.618 212.067C267.367 213.603 265.968 215.35 264.575 217.354C263.176 219.353 261.713 221.564 260.382 224.032C259.045 226.504 257.766 229.173 256.802 232.094C256.791 232.126 256.784 232.163 256.773 232.196C256.789 231.254 256.748 228.619 256.722 228.418C256.353 225.571 253.966 220.287 250.805 219.702C248.528 219.281 246.599 221.065 246.417 223.28C246.232 225.542 247.871 227.806 249.472 229.235C251.275 230.846 256.281 232.406 256.68 232.529C255.787 235.318 255.099 238.254 254.565 241.262C254.258 242.983 254.003 244.724 253.769 246.474C253.756 245.66 253.74 244.931 253.727 244.829C253.358 241.982 250.972 236.698 247.81 236.114C245.532 235.692 243.604 237.478 243.422 239.692C243.236 241.955 244.877 244.218 246.476 245.647C248.099 247.096 252.34 248.512 253.467 248.871C253.384 249.543 253.294 250.214 253.214 250.887C252.828 254.113 252.457 257.334 251.997 260.483C251.835 261.593 251.635 262.68 251.439 263.767C251.428 263.044 251.411 262.435 251.4 262.342C251.03 259.495 248.645 254.211 245.484 253.627C243.205 253.206 241.276 254.99 241.095 257.206C240.909 259.466 242.55 261.731 244.149 263.16C245.697 264.543 249.601 265.885 250.938 266.319C250.703 267.427 250.47 268.537 250.193 269.601C249.987 270.323 249.84 271.032 249.593 271.746C249.363 272.456 249.136 273.162 248.911 273.859C248.427 275.186 247.937 276.559 247.434 277.842C247.09 278.737 246.746 279.584 246.403 280.438C246.577 279.335 246.871 277.169 246.876 276.985C246.92 275.078 246.243 271.978 244.895 269.799C244.903 269.517 244.887 269.237 244.842 268.958C244.49 266.764 242.429 265.134 240.19 265.73C237.083 266.558 235.113 272.011 234.966 274.877C234.957 275.047 235.068 276.892 235.157 278.056C235 277.38 234.857 276.722 234.687 276.029C234.361 274.655 233.995 273.293 233.608 271.826C233.396 271.125 233.181 270.417 232.964 269.7C232.765 268.987 232.463 268.257 232.214 267.528C231.599 265.848 230.895 264.175 230.148 262.506C231.351 262.218 235.606 261.133 237.314 259.821C239.016 258.516 240.82 256.38 240.804 254.111C240.788 251.888 238.998 249.965 236.695 250.215C233.499 250.562 230.725 255.654 230.145 258.466C230.109 258.642 229.919 260.706 229.837 261.841C229.38 260.842 228.929 259.841 228.434 258.844C227.006 255.967 225.471 253.1 223.951 250.232C223.485 249.354 223.031 248.474 222.574 247.594C223.003 247.496 228.09 246.316 230.004 244.848C231.705 243.543 233.509 241.407 233.493 239.137C233.477 236.915 231.687 234.992 229.384 235.242C226.187 235.589 223.414 240.68 222.833 243.492C222.79 243.704 222.522 246.674 222.49 247.433C221.483 245.496 220.498 243.556 219.604 241.603C218.368 238.91 217.303 236.201 216.466 233.499C216.666 233.454 221.98 232.245 223.94 230.742C225.642 229.437 227.446 227.301 227.429 225.032C227.414 222.81 225.623 220.887 223.32 221.137C220.124 221.484 217.35 226.575 216.77 229.387C216.725 229.608 216.438 232.804 216.428 233.386C216.378 233.226 216.309 233.065 216.261 232.904C215.405 230.008 214.938 227.095 214.635 224.347C214.455 222.75 214.374 221.215 214.327 219.718C215.339 219.595 219.962 218.979 221.876 217.82C223.71 216.71 225.739 214.785 225.971 212.528C226.199 210.318 224.631 208.209 222.315 208.205C219.1 208.199 215.784 212.956 214.898 215.686C214.85 215.835 214.527 217.399 214.309 218.541C214.299 217.865 214.275 217.168 214.277 216.521C214.282 214.09 214.436 211.863 214.588 209.894C214.683 208.774 214.792 207.763 214.903 206.819C215.834 206.179 219.551 203.555 220.695 201.679C221.812 199.848 222.725 197.206 221.891 195.095C221.075 193.027 218.712 191.879 216.655 192.943C213.799 194.419 213.047 200.168 213.519 203C213.56 203.244 214.639 206.998 214.688 206.966C214.688 206.966 214.734 206.935 214.745 206.927C214.619 207.834 214.495 208.808 214.381 209.874C214.185 211.845 213.982 214.073 213.925 216.515C213.861 218.953 213.861 221.605 214.113 224.398C214.361 227.197 214.765 230.13 215.573 233.097C215.582 233.13 215.597 233.164 215.606 233.198C215.1 232.403 213.611 230.229 213.478 230.074C211.6 227.903 206.694 224.812 203.735 226.069C201.603 226.975 200.978 229.527 202.049 231.475C203.144 233.463 205.761 234.446 207.883 234.755Z" fill="#263238"/>
<path d="M263.013 219.651C263.063 219.682 264.04 215.9 264.074 215.655C264.469 212.812 263.563 207.084 260.668 205.686C258.583 204.678 256.251 205.89 255.492 207.979C254.715 210.111 255.699 212.728 256.865 214.528C258.233 216.642 263.009 219.648 263.013 219.651Z" fill="#263238"/>
<path d="M124.882 65.5737H39.9229V175.817H124.882V65.5737Z" stroke="#263238" stroke-width="0.646" stroke-miterlimit="10"/>
<path d="M122.471 68.7012H42.333V172.689H122.471V68.7012Z" stroke="#263238" stroke-width="0.646" stroke-miterlimit="10"/>
<path d="M102.379 94.7729H62.4248V146.617H102.379V94.7729Z" stroke="#263238" stroke-width="0.646" stroke-miterlimit="10"/>
<path d="M207.387 106.356L209.167 93.7391C212.643 91.5957 215.86 89.2623 218.817 86.741C221.772 84.2196 224.225 81.4418 226.173 78.4063C228.121 75.372 229.347 72.0651 229.851 68.4889C230.243 65.7072 229.919 63.4494 228.881 61.7156C227.842 59.983 226.131 58.9468 223.746 58.6103C221.626 58.3112 219.869 58.671 218.477 59.691C217.082 60.7104 216.242 62.2472 215.953 64.3002C215.821 65.2279 215.8 66.1026 215.887 66.9249C215.973 67.7479 216.083 68.642 216.218 69.6065L203.521 70.5516C203.243 69.162 203.08 67.8041 203.031 66.4805C202.98 65.1562 203.05 63.8332 203.237 62.5076C204.022 56.9436 206.351 52.7478 210.23 49.9164C214.108 47.0869 219.227 46.1192 225.584 47.0158C232.075 47.9312 236.861 50.397 239.942 54.4113C243.024 58.4268 244.107 63.6788 243.191 70.1691C242.594 74.4082 241.297 78.2105 239.302 81.5762C237.308 84.9432 234.732 87.9916 231.579 90.7203C228.424 93.451 224.858 95.9878 220.88 98.3309L219.508 108.067L207.387 106.356ZM203.976 126.95L205.839 113.737L219.152 115.614L217.288 128.827L203.976 126.95Z" stroke="#263238" stroke-width="0.646" stroke-miterlimit="10"/>
<path d="M136.25 160.872C136.25 160.872 94.7789 161.425 93.4882 164.374C92.1982 167.323 86.3002 203.081 85.9313 215.43C85.5625 227.779 85.3784 235.888 86.6684 237.363C87.9585 238.838 108.049 250.45 108.049 250.45C108.049 250.45 98.6491 283.442 101.598 284.548C104.547 285.654 122.61 290.262 134.222 290.446C145.834 290.63 157.261 290.63 158.183 290.63C159.104 290.63 188.779 291.736 199.1 289.34C209.422 286.944 212.555 286.76 212.555 282.705C212.555 278.65 209.975 273.674 209.79 272.752C209.606 271.831 216.794 201.975 212.739 184.834C208.684 167.693 203.339 161.058 199.284 159.952C195.229 158.846 166.292 159.583 166.292 159.583L136.25 160.872Z" fill="#92E3A9" stroke="#263238" stroke-width="0.646" stroke-miterlimit="10" stroke-linecap="round" stroke-linejoin="round"/>
<path d="M158.337 175.703C156.973 176.495 155.533 177.229 154.024 177.872" stroke="#263238" stroke-width="0.646" stroke-miterlimit="10" stroke-linecap="round" stroke-linejoin="round"/>
<path d="M173.705 161.769C173.705 161.769 168.67 169.026 160.287 174.501" stroke="#263238" stroke-width="0.646" stroke-miterlimit="10" stroke-linecap="round" stroke-linejoin="round"/>
<path d="M171.245 169.149C171.245 169.149 167.443 174.517 164.088 176.306" stroke="#263238" stroke-width="0.646" stroke-miterlimit="10" stroke-linecap="round" stroke-linejoin="round"/>
<path d="M144.893 228.203L143.807 224.829" stroke="#263238" stroke-width="0.646" stroke-miterlimit="10" stroke-linecap="round" stroke-linejoin="round"/>
<path d="M150.811 246.579L146.006 231.658" stroke="#263238" stroke-width="0.646" stroke-miterlimit="10" stroke-linecap="round" stroke-linejoin="round"/>
<path d="M152.285 246.948L157.077 239.391" stroke="#263238" stroke-width="0.646" stroke-miterlimit="10" stroke-linecap="round" stroke-linejoin="round"/>
<path d="M163.16 242.524L174.772 229.437" stroke="#263238" stroke-width="0.646" stroke-miterlimit="10" stroke-linecap="round" stroke-linejoin="round"/>
<path d="M133.19 283.346L158.183 290.63" stroke="#263238" stroke-width="0.646" stroke-miterlimit="10" stroke-linecap="round" stroke-linejoin="round"/>
<path d="M125.928 281.23L130.22 282.481" stroke="#263238" stroke-width="0.646" stroke-miterlimit="10" stroke-linecap="round" stroke-linejoin="round"/>
<path d="M135.992 78.8978C135.992 78.8978 122.969 75.9061 120.505 79.2498C118.041 82.5935 122.969 85.7615 122.265 86.4657C121.561 87.1698 106.426 94.9134 107.658 102.481C108.89 110.049 119.097 117.792 119.449 119.904C119.801 122.016 107.658 122.72 106.074 125.888C104.49 129.056 102.202 144.015 115.401 148.942C128.6 153.87 145.144 145.599 149.719 145.599C154.295 145.599 158.871 154.574 164.15 154.046C169.43 153.519 172.422 149.646 172.422 149.646C172.422 149.646 177.877 157.214 185.797 154.046C193.716 150.878 202.868 139.791 198.996 136.447C195.125 133.104 190.725 132.047 193.541 129.056C196.357 126.064 202.164 118.144 201.284 111.28C200.404 104.417 192.309 103.889 189.141 101.777C185.973 99.6654 192.661 96.1453 192.484 90.3378C192.309 84.5302 188.085 74.8506 166.614 68.3389C145.143 61.8272 134.584 64.9952 133.528 70.4507C132.472 75.9061 135.992 78.8978 135.992 78.8978Z" fill="#263238" stroke="#263238" stroke-width="0.646" stroke-miterlimit="10" stroke-linecap="round" stroke-linejoin="round"/>
<path d="M138.333 135.363C138.333 135.363 133.933 162.818 133.758 163.698C133.582 164.577 141.501 172.497 152.236 171.089C162.972 169.681 168.428 162.466 168.428 162.466L165.084 135.187C165.084 135.187 155.933 139.587 150.301 139.411C144.669 139.235 138.333 135.363 138.333 135.363Z" fill="white" stroke="#263238" stroke-width="0.646" stroke-miterlimit="10" stroke-linecap="round" stroke-linejoin="round"/>
<path d="M136.528 150.093L155.057 146.507L138.333 135.363L136.528 150.093Z" fill="#263238" stroke="#263238" stroke-width="0.646" stroke-miterlimit="10" stroke-linecap="round" stroke-linejoin="round"/>
<path d="M128.552 111.158C128.552 111.158 125.452 107.231 124.005 112.191C122.558 117.152 128.759 123.146 128.759 123.146L128.552 111.158Z" fill="white" stroke="#263238" stroke-width="0.646" stroke-miterlimit="10" stroke-linecap="round" stroke-linejoin="round"/>
<path d="M172.977 111.158C172.977 111.158 176.078 107.231 177.525 112.191C178.972 117.152 172.771 123.146 172.771 123.146L172.977 111.158Z" fill="white" stroke="#263238" stroke-width="0.646" stroke-miterlimit="10" stroke-linecap="round" stroke-linejoin="round"/>
<path d="M138.295 86.339C138.295 86.339 129.42 94.9566 128.134 97.529C126.847 100.101 127.362 129.556 128.776 132.386C130.191 135.215 144.34 146.277 146.655 147.177C148.97 148.078 154.244 148.978 158.36 146.92C162.476 144.863 172.38 134.315 173.409 131.614C174.438 128.913 173.152 98.0432 172.509 95.0852C171.865 92.1272 156.302 81.5799 149.742 81.0651C143.183 80.5508 138.295 86.339 138.295 86.339Z" fill="white" stroke="#263238" stroke-width="0.646" stroke-miterlimit="10" stroke-linecap="round" stroke-linejoin="round"/>
<path d="M145.273 81.0691C145.273 81.0691 158.568 93.1977 168.131 93.6641C177.693 94.1305 177.693 94.1305 177.693 94.1305C177.693 94.1305 156.702 91.3314 150.171 77.1039C150.171 77.1039 142.941 71.0399 145.273 81.0691Z" fill="#263238" stroke="#263238" stroke-width="0.646" stroke-miterlimit="10" stroke-linecap="round" stroke-linejoin="round"/>
<path d="M152.701 105.118L153.73 118.109" stroke="#263238" stroke-width="0.646" stroke-miterlimit="10" stroke-linecap="round" stroke-linejoin="round"/>
<path d="M154.759 120.811C154.759 120.811 152.444 124.283 150.772 124.283C149.1 124.283 147.427 122.354 147.427 122.354" stroke="#263238" stroke-width="0.646" stroke-miterlimit="10" stroke-linecap="round" stroke-linejoin="round"/>
<path d="M140.739 125.054C140.739 125.054 143.697 129.942 147.556 130.199C151.415 130.456 155.531 129.298 155.531 129.298" stroke="#263238" stroke-width="0.646" stroke-miterlimit="10" stroke-linecap="round" stroke-linejoin="round"/>
<path d="M154.245 103.06C154.245 103.06 158.747 99.7158 160.547 98.5582C162.347 97.4005 168.136 99.5873 168.136 99.5873C168.136 99.5873 163.762 97.1434 161.448 96.7578C159.132 96.3721 154.373 99.7158 153.988 101.26C153.601 102.803 152.444 102.417 154.245 103.06Z" fill="#263238" stroke="#263238" stroke-width="0.646" stroke-miterlimit="10" stroke-linecap="round" stroke-linejoin="round"/>
<path d="M144.984 103.676C144.984 103.676 144.341 101.876 142.154 101.747C139.968 101.618 130.321 104.191 131.993 104.191C133.664 104.191 140.61 104.062 142.411 104.062C144.212 104.062 144.984 103.676 144.984 103.676Z" fill="#263238" stroke="#263238" stroke-width="0.646" stroke-miterlimit="10" stroke-linecap="round" stroke-linejoin="round"/>
<path d="M167.106 111.035C167.106 111.035 163.762 111.807 161.19 111.678C158.617 111.55 156.302 110.778 157.331 111.935C158.36 113.093 160.418 114.122 163.634 113.478C166.849 112.836 168.007 112.192 167.106 111.035Z" fill="#263238"/>
<path d="M143.826 111.035C143.826 111.035 140.482 111.807 137.909 111.678C135.337 111.55 133.022 110.778 134.051 111.935C135.08 113.093 137.138 114.122 140.353 113.478C143.569 112.836 144.727 112.192 143.826 111.035Z" fill="#263238"/>
<path d="M101.023 185.169C101.023 185.169 104.895 163.874 106.655 161.762C108.415 159.65 127.598 143.988 128.654 142.931C129.71 141.875 137.278 130.436 137.63 131.844C137.982 133.252 136.75 139.412 134.462 142.756C132.174 146.099 129.006 150.147 129.006 150.147C129.006 150.147 140.798 153.139 141.502 153.843C142.206 154.547 146.213 163.311 146.429 164.402C146.803 166.287 146.263 168.31 144.67 168.45C143.224 168.578 133.758 163.698 133.758 163.698L126.191 164.755C126.191 164.755 120.735 171.442 117.039 172.674C113.343 173.906 111.936 174.082 111.936 174.082L112.112 187.105L101.023 185.169Z" fill="white" stroke="#263238" stroke-width="0.646" stroke-miterlimit="10" stroke-linecap="round" stroke-linejoin="round"/>
<path d="M129.575 154.166C129.575 154.166 139.85 155.545 140.476 156.046C141.103 156.547 146.429 164.402 146.429 164.402" stroke="#263238" stroke-width="0.646" stroke-miterlimit="10" stroke-linecap="round" stroke-linejoin="round"/>
<path d="M130.276 158.847C130.276 158.847 140.476 161.184 141.228 161.81C141.98 162.437 145.99 167.073 145.99 167.073" stroke="#263238" stroke-width="0.646" stroke-miterlimit="10" stroke-linecap="round" stroke-linejoin="round"/>
<path d="M146.203 248.606C146.203 248.606 132.379 246.025 131.826 245.841C131.273 245.657 121.504 242.708 120.214 242.155C118.924 241.602 103.257 238.837 102.52 239.943C101.783 241.049 101.045 247.5 100.861 248.053C100.677 248.606 99.2023 251.186 99.5712 252.661C99.94 254.136 99.5712 256.716 99.5712 256.716C99.5712 256.716 99.3871 265.379 101.599 265.563C103.811 265.747 105.838 257.453 105.838 257.453C105.838 257.453 108.971 259.296 115.423 259.665C121.874 260.034 128.141 256.9 128.141 256.9L145.282 260.955L146.203 248.606Z" fill="white" stroke="#263238" stroke-width="0.646" stroke-miterlimit="10" stroke-linecap="round" stroke-linejoin="round"/>
<path d="M98.3916 181.409L116.947 184.799L116.233 196.396C116.233 196.396 120.337 198.359 121.586 209.778C122.835 221.196 126.403 247.717 125.511 249.68C124.619 251.642 119.088 260.206 106.242 260.742C93.3954 261.277 86.4373 249.501 85.188 245.755C83.9392 242.008 90.5407 217.45 90.8973 215.309C91.2539 213.167 93.0382 198.537 94.6441 196.039C96.2501 193.541 98.2126 191.936 98.2126 191.936L98.3916 181.409Z" fill="#92E3A9" stroke="#263238" stroke-width="0.646" stroke-miterlimit="10" stroke-linecap="round" stroke-linejoin="round"/>
<path d="M109.923 194.772C110.978 194.895 112.023 194.969 113.022 194.969" stroke="#263238" stroke-width="0.646" stroke-miterlimit="10" stroke-linecap="round" stroke-linejoin="round"/>
<path d="M98.2134 191.936C98.2134 191.936 101.528 193.135 105.586 194.025" stroke="#263238" stroke-width="0.646" stroke-miterlimit="10" stroke-linecap="round" stroke-linejoin="round"/>
<path d="M200.392 187.229L198.549 234.782C198.549 234.782 196.522 234.966 195.784 235.888C195.047 236.81 194.494 237.916 194.494 237.916C194.494 237.916 175.878 238.653 167.031 241.234C158.184 243.814 152.286 246.948 152.286 246.948L144.176 246.764L142.517 268.144L153.392 268.513C153.392 268.513 158.737 271.646 183.067 273.858C207.396 276.07 218.639 276.623 221.22 273.674C223.801 270.725 224.906 266.117 225.275 263.721C225.644 261.325 230.067 246.579 230.067 225.199C230.067 203.819 209.977 172.854 205.553 165.85C201.13 158.846 196.522 159.399 193.389 160.136" fill="#92E3A9"/>
<path d="M200.392 187.229L198.549 234.782C198.549 234.782 196.522 234.966 195.784 235.888C195.047 236.81 194.494 237.916 194.494 237.916C194.494 237.916 175.878 238.653 167.031 241.234C158.184 243.814 152.286 246.948 152.286 246.948L144.176 246.764L142.517 268.144L153.392 268.513C153.392 268.513 158.737 271.646 183.067 273.858C207.396 276.07 218.639 276.623 221.22 273.674C223.801 270.725 224.906 266.117 225.275 263.721C225.644 261.325 230.067 246.579 230.067 225.199C230.067 203.819 209.977 172.854 205.553 165.85C201.13 158.846 196.522 159.399 193.389 160.136" stroke="#263238" stroke-width="0.646" stroke-miterlimit="10" stroke-linecap="round" stroke-linejoin="round"/>
<path d="M209.859 231.502L198.548 234.782L209.239 224.829" stroke="#263238" stroke-width="0.646" stroke-miterlimit="10" stroke-linecap="round" stroke-linejoin="round"/>
<path d="M216.98 229.437L213.403 230.474" stroke="#263238" stroke-width="0.646" stroke-miterlimit="10" stroke-linecap="round" stroke-linejoin="round"/>
<path d="M194.493 237.916C194.493 237.916 206.289 238.837 211.082 240.681" stroke="#263238" stroke-width="0.646" stroke-miterlimit="10" stroke-linecap="round" stroke-linejoin="round"/>
<path d="M212.798 248.417C213.351 248.994 213.888 249.609 214.399 250.265" stroke="#263238" stroke-width="0.646" stroke-miterlimit="10" stroke-linecap="round" stroke-linejoin="round"/>
<path d="M199.286 240.496C199.286 240.496 205.171 241.908 210.546 246.333" stroke="#263238" stroke-width="0.646" stroke-miterlimit="10" stroke-linecap="round" stroke-linejoin="round"/>
<path d="M152.101 248.975L152.285 266.853" stroke="#263238" stroke-width="0.646" stroke-miterlimit="10" stroke-linecap="round" stroke-linejoin="round"/>
<path d="M143.254 262.43H150.995" stroke="#263238" stroke-width="0.646" stroke-miterlimit="10" stroke-linecap="round" stroke-linejoin="round"/>
<path d="M145.097 251.924L148.23 251.739" stroke="#263238" stroke-width="0.646" stroke-miterlimit="10" stroke-linecap="round" stroke-linejoin="round"/>
</svg>
