<svg width="24" height="24" viewBox="0 0 24 24" fill="none" xmlns="http://www.w3.org/2000/svg">
<g opacity="0.6">
<path d="M20.5899 6.90046C20.569 6.86551 20.5456 6.83209 20.5199 6.80046C19.2265 4.67173 17.1851 3.10236 14.7955 2.39952C12.4058 1.69668 9.83987 1.91097 7.5999 3.00046H7.5299C5.98446 3.7963 4.67318 4.98126 3.72537 6.43845C2.77757 7.89565 2.22599 9.57474 2.12503 11.3101C2.02408 13.0455 2.37724 14.7772 3.14969 16.3345C3.92213 17.8918 5.08717 19.2208 6.5299 20.1905L6.8599 20.3905L6.9599 20.4605C8.47053 21.4184 10.2119 21.9504 11.9999 22.0005H12.2099C13.9562 21.962 15.662 21.4667 17.1574 20.564C18.6529 19.6614 19.8857 18.3827 20.7334 16.8554C21.581 15.3281 22.0137 13.6054 21.9886 11.8588C21.9634 10.1122 21.4812 8.40272 20.5899 6.90046ZM18.9999 8.06046C19.267 8.52306 19.4849 9.01241 19.6499 9.52046C18.6807 9.2052 17.669 9.03996 16.6499 9.03046C16.5475 9.0105 16.4423 9.0105 16.3399 9.03046C15.1113 9.04674 13.8968 9.2944 12.7599 9.76046C12.067 9.32622 11.4462 8.78637 10.9199 8.16046C12.1421 7.44374 13.5299 7.05761 14.9467 7.04007C16.3634 7.02254 17.7603 7.3742 18.9999 8.06046ZM11.9999 4.00046C13.4049 3.9932 14.7862 4.36269 15.9999 5.07046C15.6684 5.02562 15.3344 5.00224 14.9999 5.00046C13.1645 5.00397 11.3655 5.51254 9.7999 6.47046C9.50454 5.8538 9.28945 5.20182 9.1599 4.53046C10.0661 4.18116 11.0287 4.00151 11.9999 4.00046ZM5.9999 6.71046C6.39895 6.26692 6.84489 5.86793 7.3299 5.52046C7.6638 6.79529 8.24886 7.99063 9.05078 9.03638C9.8527 10.0821 10.8553 10.9573 11.9999 11.6105C11.9286 12.6107 11.6672 13.5881 11.2299 14.4905C9.69788 13.925 8.37561 12.9043 7.44069 11.5654C6.50577 10.2264 6.00299 8.63348 5.9999 7.00046C5.9999 6.90046 5.9999 6.81046 5.9999 6.71046ZM3.9999 12.0005C4.00169 11.197 4.12302 10.3982 4.3599 9.63046C4.75524 11.0823 5.47312 12.4262 6.46004 13.562C7.44696 14.6978 8.67748 15.5963 10.0599 16.1905C9.264 17.1231 8.26046 17.856 7.1299 18.3305C6.15861 17.5852 5.37132 16.6269 4.82867 15.5295C4.28602 14.4321 4.00249 13.2247 3.9999 12.0005ZM11.8599 20.0005C10.9683 19.9875 10.0855 19.8218 9.2499 19.5105C10.5616 18.702 11.6674 17.5996 12.4799 16.2905C13.4007 14.8229 13.9245 13.1413 13.9999 11.4105C14.577 11.2208 15.1745 11.0999 15.7799 11.0505C16.2071 12.7657 16.0542 14.5742 15.345 16.1934C14.6358 17.8126 13.4103 19.1513 11.8599 20.0005ZM16.0799 18.8805C17.329 17.1745 18.0015 15.1148 17.9999 13.0005C17.9955 12.3697 17.9352 11.7406 17.8199 11.1205C18.5719 11.2533 19.302 11.4889 19.9899 11.8205C19.9899 11.8805 19.9899 11.9405 19.9899 12.0005C19.989 13.3861 19.6281 14.7478 18.9427 15.9521C18.2573 17.1564 17.2708 18.162 16.0799 18.8705V18.8805Z" fill="#F3FCF8"/>
</g>
</svg>
